<svg xmlns="http://www.w3.org/2000/svg" xmlns:xlink="http://www.w3.org/1999/xlink" xmlns:lucid="lucid" width="2850.96" height="1751"><g transform="translate(1366 -440)" lucid:page-tab-id="0_0"><path d="M-1806.4 0h3676.8v2582.4h-3676.8z" fill="#fff"/><path d="M-839.92 1183.15c0-2.76 2.24-5 5-5h244.2c2.77 0 5 2.24 5 5v289c0 2.76-2.23 5-5 5h-244.2c-2.76 0-5-2.24-5-5z" fill="#fff"/><path d="M-839.92 1178.15h254.2v40h-254.2z" fill="#ccc"/><path d="M-839.92 1183.15c0-2.76 2.24-5 5-5h244.2c2.77 0 5 2.24 5 5v289c0 2.76-2.23 5-5 5h-244.2c-2.76 0-5-2.24-5-5zM-839.92 1218.15h254.2" stroke="#666" stroke-width="5" fill="none"/><use xlink:href="#a" transform="matrix(1,0,0,1,-829.9196018376724,1178.147013782542) translate(89.1358024691358 24.444444444444443)"/><use xlink:href="#b" transform="matrix(1,0,0,1,-834.9196018376724,1220.647013782542) translate(0 20.444444444444443)"/><use xlink:href="#c" transform="matrix(1,0,0,1,-834.9196018376724,1257.647013782542) translate(0 20.444444444444443)"/><use xlink:href="#d" transform="matrix(1,0,0,1,-834.9196018376724,1294.647013782542) translate(0 20.444444444444443)"/><use xlink:href="#e" transform="matrix(1,0,0,1,-834.9196018376724,1331.647013782542) translate(0 20.444444444444443)"/><use xlink:href="#f" transform="matrix(1,0,0,1,-834.9196018376724,1368.647013782542) translate(0 20.444444444444443)"/><use xlink:href="#g" transform="matrix(1,0,0,1,-834.9196018376724,1405.647013782542) translate(0 20.444444444444443)"/><use xlink:href="#h" transform="matrix(1,0,0,1,-834.9196018376724,1442.647013782542) translate(0 20.444444444444443)"/><path d="M1142.93 744c0-2.76 2.24-5 5-5h244.2c2.77 0 5 2.24 5 5v363c0 2.76-2.23 5-5 5h-244.2c-2.76 0-5-2.24-5-5z" fill="#fff"/><path d="M1142.93 739h254.2v40h-254.2z" fill="#ccc"/><path d="M1142.93 744c0-2.76 2.24-5 5-5h244.2c2.77 0 5 2.24 5 5v363c0 2.76-2.23 5-5 5h-244.2c-2.76 0-5-2.24-5-5zM1142.93 779h254.2" stroke="#666" stroke-width="5" fill="none"/><use xlink:href="#i" transform="matrix(1,0,0,1,1152.9287901990808,738.9969372128638) translate(54.0432098765432 24.444444444444443)"/><use xlink:href="#b" transform="matrix(1,0,0,1,1147.9287901990808,781.4969372128638) translate(0 20.444444444444443)"/><use xlink:href="#j" transform="matrix(1,0,0,1,1147.9287901990808,818.4969372128638) translate(0 20.444444444444443)"/><use xlink:href="#d" transform="matrix(1,0,0,1,1147.9287901990808,855.4969372128638) translate(0 20.444444444444443)"/><use xlink:href="#k" transform="matrix(1,0,0,1,1147.9287901990808,892.4969372128638) translate(0 20.444444444444443)"/><use xlink:href="#l" transform="matrix(1,0,0,1,1147.9287901990808,929.4969372128638) translate(0 20.444444444444443)"/><use xlink:href="#m" transform="matrix(1,0,0,1,1147.9287901990808,966.4969372128638) translate(0 20.444444444444443)"/><use xlink:href="#n" transform="matrix(1,0,0,1,1147.9287901990808,1003.4969372128638) translate(0 20.444444444444443)"/><use xlink:href="#o" transform="matrix(1,0,0,1,1147.9287901990808,1040.496937212864) translate(0 20.444444444444443)"/><use xlink:href="#p" transform="matrix(1,0,0,1,1147.9287901990808,1077.496937212864) translate(0 20.444444444444443)"/><path d="M-3.06 1575.4c0-2.77 2.24-5 5-5h244.22c2.76 0 5 2.23 5 5v215c0 2.76-2.24 5-5 5H1.94c-2.76 0-5-2.24-5-5z" fill="#fff"/><path d="M-3.06 1570.4h254.22v40H-3.06z" fill="#ccc"/><path d="M-3.06 1575.4c0-2.77 2.24-5 5-5h244.22c2.76 0 5 2.23 5 5v215c0 2.76-2.24 5-5 5H1.94c-2.76 0-5-2.24-5-5zM-3.06 1610.4h254.22" stroke="#666" stroke-width="5" fill="none"/><use xlink:href="#q" transform="matrix(1,0,0,1,6.944104134761901,1570.3950995405817) translate(85.46296296296296 24.444444444444443)"/><use xlink:href="#b" transform="matrix(1,0,0,1,1.9441041347619006,1612.8950995405817) translate(0 20.444444444444443)"/><use xlink:href="#r" transform="matrix(1,0,0,1,1.9441041347619006,1649.8950995405817) translate(0 20.444444444444443)"/><use xlink:href="#e" transform="matrix(1,0,0,1,1.9441041347619006,1686.8950995405817) translate(0 20.444444444444443)"/><use xlink:href="#f" transform="matrix(1,0,0,1,1.9441041347619006,1723.8950995405817) translate(0 20.444444444444443)"/><use xlink:href="#p" transform="matrix(1,0,0,1,1.9441041347619006,1760.8950995405817) translate(0 20.444444444444443)"/><path d="M-384.37 887c0-2.77 2.24-5 5-5h244.2c2.77 0 5 2.23 5 5v252c0 2.75-2.23 5-5 5h-244.2c-2.76 0-5-2.25-5-5z" fill="#fff"/><path d="M-384.37 882h254.2v40h-254.2z" fill="#ccc"/><path d="M-384.37 887c0-2.77 2.24-5 5-5h244.2c2.77 0 5 2.23 5 5v252c0 2.75-2.23 5-5 5h-244.2c-2.76 0-5-2.25-5-5zM-384.37 922h254.2" stroke="#666" stroke-width="5" fill="none"/><use xlink:href="#s" transform="matrix(1,0,0,1,-374.3728943338441,881.9908116385913) translate(80.52469135802468 24.444444444444443)"/><use xlink:href="#b" transform="matrix(1,0,0,1,-379.3728943338441,924.4908116385913) translate(0 20.444444444444443)"/><use xlink:href="#t" transform="matrix(1,0,0,1,-379.3728943338441,961.4908116385913) translate(0 20.444444444444443)"/><use xlink:href="#u" transform="matrix(1,0,0,1,-379.3728943338441,998.4908116385913) translate(0 20.444444444444443)"/><use xlink:href="#v" transform="matrix(1,0,0,1,-379.3728943338441,1035.4908116385914) translate(0 20.444444444444443)"/><use xlink:href="#w" transform="matrix(1,0,0,1,-379.3728943338441,1072.4908116385914) translate(0 20.444444444444443)"/><use xlink:href="#h" transform="matrix(1,0,0,1,-379.3728943338441,1109.4908116385914) translate(0 20.444444444444443)"/><path d="M-765.7 749.72c0-2.76 2.25-5 5-5h244.22c2.76 0 5 2.24 5 5v215c0 2.76-2.24 5-5 5h-244.2c-2.77 0-5-2.24-5-5z" fill="#fff"/><path d="M-765.7 744.72h254.22v40h-254.2z" fill="#ccc"/><path d="M-765.7 749.72c0-2.76 2.25-5 5-5h244.22c2.76 0 5 2.24 5 5v215c0 2.76-2.24 5-5 5h-244.2c-2.77 0-5-2.24-5-5zM-765.7 784.72h254.22" stroke="#666" stroke-width="5" fill="none"/><use xlink:href="#x" transform="matrix(1,0,0,1,-755.6898928024503,744.7166921898929) translate(73.08641975308642 24.444444444444443)"/><use xlink:href="#b" transform="matrix(1,0,0,1,-760.6898928024503,787.2166921898929) translate(0 20.444444444444443)"/><use xlink:href="#d" transform="matrix(1,0,0,1,-760.6898928024503,824.2166921898929) translate(0 20.444444444444443)"/><use xlink:href="#c" transform="matrix(1,0,0,1,-760.6898928024503,861.2166921898929) translate(0 20.444444444444443)"/><use xlink:href="#y" transform="matrix(1,0,0,1,-760.6898928024503,898.2166921898929) translate(0 20.444444444444443)"/><use xlink:href="#p" transform="matrix(1,0,0,1,-760.6898928024503,935.2166921898929) translate(0 20.444444444444443)"/><path d="M378.26 749.72c0-2.76 2.24-5 5-5h244.2c2.77 0 5 2.24 5 5v215c0 2.76-2.23 5-5 5h-244.2c-2.76 0-5-2.24-5-5z" fill="#fff"/><path d="M378.26 744.72h254.2v40h-254.2z" fill="#ccc"/><path d="M378.26 749.72c0-2.76 2.24-5 5-5h244.2c2.77 0 5 2.24 5 5v215c0 2.76-2.23 5-5 5h-244.2c-2.76 0-5-2.24-5-5zM378.26 784.72h254.2" stroke="#666" stroke-width="5" fill="none"/><use xlink:href="#z" transform="matrix(1,0,0,1,388.26110260336884,744.7166921898929) translate(83.64197530864197 24.444444444444443)"/><use xlink:href="#b" transform="matrix(1,0,0,1,383.26110260336884,787.2166921898929) translate(0 20.444444444444443)"/><use xlink:href="#c" transform="matrix(1,0,0,1,383.26110260336884,824.2166921898929) translate(0 20.444444444444443)"/><use xlink:href="#A" transform="matrix(1,0,0,1,383.26110260336884,861.2166921898929) translate(0 20.444444444444443)"/><use xlink:href="#d" transform="matrix(1,0,0,1,383.26110260336884,898.2166921898929) translate(0 20.444444444444443)"/><use xlink:href="#h" transform="matrix(1,0,0,1,383.26110260336884,935.2166921898929) translate(0 20.444444444444443)"/><path d="M734.16 1129.76c0-2.76 2.24-5 5-5h244.2c2.77 0 5 2.24 5 5v178c0 2.76-2.23 5-5 5h-244.2c-2.76 0-5-2.24-5-5z" fill="#fff"/><path d="M734.16 1124.76h254.2v40h-254.2z" fill="#ccc"/><path d="M734.16 1129.76c0-2.76 2.24-5 5-5h244.2c2.77 0 5 2.24 5 5v178c0 2.76-2.23 5-5 5h-244.2c-2.76 0-5-2.24-5-5zM734.16 1164.76h254.2" stroke="#666" stroke-width="5" fill="none"/><use xlink:href="#B" transform="matrix(1,0,0,1,744.1569678407349,1124.7626339969374) translate(70.03086419753086 24.444444444444443)"/><use xlink:href="#b" transform="matrix(1,0,0,1,739.1569678407349,1167.2626339969374) translate(0 20.444444444444443)"/><use xlink:href="#c" transform="matrix(1,0,0,1,739.1569678407349,1204.2626339969374) translate(0 20.444444444444443)"/><use xlink:href="#C" transform="matrix(1,0,0,1,739.1569678407349,1241.2626339969374) translate(0 20.444444444444443)"/><use xlink:href="#h" transform="matrix(1,0,0,1,739.1569678407349,1278.2626339969374) translate(0 20.444444444444443)"/><path d="M-3.06 724.3c0-2.77 2.24-5 5-5h244.22c2.76 0 5 2.23 5 5v363c0 2.76-2.24 5-5 5H1.94c-2.76 0-5-2.24-5-5z" fill="#fff"/><path d="M-3.06 719.3h254.22v40H-3.06z" fill="#ccc"/><path d="M-3.06 724.3c0-2.77 2.24-5 5-5h244.22c2.76 0 5 2.23 5 5v363c0 2.76-2.24 5-5 5H1.94c-2.76 0-5-2.24-5-5zM-3.06 759.3h254.22" stroke="#666" stroke-width="5" fill="none"/><use xlink:href="#D" transform="matrix(1,0,0,1,6.944104134761901,719.2955589586524) translate(79.2283950617284 24.444444444444443)"/><use xlink:href="#b" transform="matrix(1,0,0,1,1.9441041347619006,761.7955589586524) translate(0 20.444444444444443)"/><use xlink:href="#j" transform="matrix(1,0,0,1,1.9441041347619006,798.7955589586524) translate(0 20.444444444444443)"/><use xlink:href="#k" transform="matrix(1,0,0,1,1.9441041347619006,835.7955589586524) translate(0 20.444444444444443)"/><use xlink:href="#l" transform="matrix(1,0,0,1,1.9441041347619006,872.7955589586524) translate(0 20.444444444444443)"/><use xlink:href="#m" transform="matrix(1,0,0,1,1.9441041347619006,909.7955589586524) translate(0 20.444444444444443)"/><use xlink:href="#n" transform="matrix(1,0,0,1,1.9441041347619006,946.7955589586524) translate(0 20.444444444444443)"/><use xlink:href="#o" transform="matrix(1,0,0,1,1.9441041347619006,983.7955589586524) translate(0 20.444444444444443)"/><use xlink:href="#C" transform="matrix(1,0,0,1,1.9441041347619006,1020.7955589586524) translate(0 20.444444444444443)"/><use xlink:href="#p" transform="matrix(1,0,0,1,1.9441041347619006,1057.7955589586522) translate(0 20.444444444444443)"/><path d="M1162.25 1308.98c0-2.76 2.24-5 5-5h244.2c2.77 0 5 2.24 5 5v326c0 2.76-2.23 5-5 5h-244.2c-2.76 0-5-2.24-5-5z" fill="#fff"/><path d="M1162.25 1303.98h254.2v40h-254.2z" fill="#ccc"/><path d="M1162.25 1308.98c0-2.76 2.24-5 5-5h244.2c2.77 0 5 2.24 5 5v326c0 2.76-2.23 5-5 5h-244.2c-2.76 0-5-2.24-5-5zM1162.25 1343.98h254.2" stroke="#666" stroke-width="5" fill="none"/><use xlink:href="#E" transform="matrix(1,0,0,1,1172.2488514548234,1303.9816232771823) translate(78.05555555555556 24.444444444444443)"/><use xlink:href="#b" transform="matrix(1,0,0,1,1167.2488514548234,1346.4816232771823) translate(0 20.444444444444443)"/><use xlink:href="#j" transform="matrix(1,0,0,1,1167.2488514548234,1383.4816232771823) translate(0 20.444444444444443)"/><use xlink:href="#k" transform="matrix(1,0,0,1,1167.2488514548234,1420.4816232771823) translate(0 20.444444444444443)"/><use xlink:href="#l" transform="matrix(1,0,0,1,1167.2488514548234,1457.4816232771823) translate(0 20.444444444444443)"/><use xlink:href="#m" transform="matrix(1,0,0,1,1167.2488514548234,1494.4816232771823) translate(0 20.444444444444443)"/><use xlink:href="#n" transform="matrix(1,0,0,1,1167.2488514548234,1531.4816232771823) translate(0 20.444444444444443)"/><use xlink:href="#o" transform="matrix(1,0,0,1,1167.2488514548234,1568.4816232771823) translate(0 20.444444444444443)"/><use xlink:href="#p" transform="matrix(1,0,0,1,1167.2488514548234,1605.4816232771823) translate(0 20.444444444444443)"/><path d="M375.76 803.22H319.7c-2.75 0-5 2.24-5 5v223.58c0 2.76-2.23 5-5 5h-56.04" stroke="#999" stroke-width="5" fill="none"/><path fill="#fff"/><path d="M358.26 813.22h-5v-20h5zM280.36 1036.8l-24.47 12.23-2.24-4.47 15.52-7.76-15.52-7.77 2.23-4.47z" fill="#999"/><path d="M634.97 803.22h43.34c2.78 0 5 2.24 5 5v444.04c0 2.76 2.25 5 5 5h43.36" stroke="#999" stroke-width="5" fill="none"/><path fill="#fff"/><path d="M657.47 813.22h-5v-20h5zM731.66 1249.5l-15.53 7.76 15.53 7.77-2.24 4.47-24.47-12.24 24.47-12.23z" fill="#999"/><path d="M-508.98 803.22h56.05c2.77 0 5 2.24 5 5v201.27c0 2.75 2.24 5 5 5h56.06" stroke="#999" stroke-width="5" fill="none"/><path fill="#fff"/><path d="M-486.48 813.22h-5v-20h5zM-386.87 1006.73l-15.53 7.76 15.53 7.75-2.24 4.48-24.48-12.24 24.47-12.25z" fill="#999"/><path d="M-583.2 1236.65h93.16c2.76 0 5-2.24 5-5V1056.5c0-2.77 2.24-5 5-5h93.17" stroke="#999" stroke-width="5" fill="none"/><path fill="#fff"/><path d="M-560.7 1246.65h-5v-20h5zM-386.87 1043.73l-15.53 7.76 15.53 7.75-2.24 4.48-24.48-12.24 24.47-12.25z" fill="#999"/><path d="M-331.5 1288.14c0-2.77 2.24-5 5-5h244.2c2.78 0 5 2.23 5 5v252c0 2.76-2.22 5-5 5h-244.2c-2.76 0-5-2.24-5-5z" fill="#fff"/><path d="M-331.5 1283.14h254.2v40h-254.2z" fill="#ccc"/><path d="M-331.5 1288.14c0-2.77 2.24-5 5-5h244.2c2.78 0 5 2.23 5 5v252c0 2.76-2.22 5-5 5h-244.2c-2.76 0-5-2.24-5-5zM-331.5 1323.14h254.2" stroke="#666" stroke-width="5" fill="none"/><use xlink:href="#F" transform="matrix(1,0,0,1,-321.4969372128638,1283.1362940275649) translate(25.586419753086446 24.444444444444443)"/><use xlink:href="#b" transform="matrix(1,0,0,1,-326.4969372128638,1325.6362940275649) translate(0 20.444444444444443)"/><use xlink:href="#G" transform="matrix(1,0,0,1,-326.4969372128638,1362.6362940275649) translate(0 20.444444444444443)"/><use xlink:href="#H" transform="matrix(1,0,0,1,-326.4969372128638,1399.6362940275649) translate(0 20.444444444444443)"/><use xlink:href="#I" transform="matrix(1,0,0,1,-326.4969372128638,1436.6362940275649) translate(0 20.444444444444443)"/><use xlink:href="#g" transform="matrix(1,0,0,1,-326.4969372128638,1473.6362940275649) translate(0 20.444444444444443)"/><use xlink:href="#h" transform="matrix(1,0,0,1,-326.4969372128638,1510.6362940275649) translate(0 20.444444444444443)"/><path d="M731.66 1183.26H333.44c-2.77 0-5 2.24-5 5v259.38c0 2.76-2.24 5-5 5H-74.8" stroke="#999" stroke-width="5" fill="none"/><path fill="#fff"/><path d="M714.16 1193.26h-5v-20h5zM-48.08 1452.64l-24.47 12.23-2.24-4.47 15.54-7.76-15.53-7.77 2.25-4.47z" fill="#999"/><path d="M-5.56 1628.9h-29.6c-2.77 0-5-2.24-5-5v-129.26c0-2.77-2.25-5-5-5H-74.8" stroke="#999" stroke-width="5" fill="none"/><path fill="#fff"/><path d="M-23.06 1638.9h-5v-20h5zM-48.08 1489.64l-24.47 12.23-2.24-4.47 15.54-7.76-15.53-7.77 2.25-4.47z" fill="#999"/><path d="M-334 1341.64h-87.87c-2.76 0-5-2.24-5-5V1093.5c0-2.77 2.24-5 5-5h35" stroke="#999" stroke-width="5" fill="none"/><path fill="#fff"/><path d="M-351.5 1351.64h-5v-20h5zM-386.87 1080.73l-15.53 7.76 15.53 7.75-2.24 4.48-24.48-12.24 24.47-12.25z" fill="#999"/><path d="M124.05 1094.8v315.84c0 2.76-2.24 5-5 5H-74.8" stroke="#999" stroke-width="5" fill="none"/><path fill="#fff"/><path d="M134.05 1117.3h-20v-5h20zM-48.08 1415.64l-24.47 12.23-2.24-4.47 15.54-7.76-15.53-7.77 2.25-4.47z" fill="#999"/><path d="M787.03 785.3c0-2.76 2.24-5 5-5h244.2c2.78 0 5 2.24 5 5v178c0 2.77-2.22 5-5 5h-244.2c-2.76 0-5-2.23-5-5z" fill="#fff"/><path d="M787.03 785.3c0-2.76 2.24-5 5-5h244.2c2.78 0 5 2.24 5 5v178c0 2.77-2.22 5-5 5h-244.2c-2.76 0-5-2.23-5-5zM787.03 820.3h254.2" stroke="#666" stroke-width="5" fill="none"/><use xlink:href="#J" transform="matrix(1,0,0,1,797.0329249617147,780.3062787136294) translate(-0.12345679012342714 24.444444444444443)"/><use xlink:href="#b" transform="matrix(1,0,0,1,792.0329249617147,822.8062787136294) translate(0 20.444444444444443)"/><use xlink:href="#K" transform="matrix(1,0,0,1,792.0329249617147,859.8062787136294) translate(0 20.444444444444443)"/><use xlink:href="#C" transform="matrix(1,0,0,1,792.0329249617147,896.8062787136294) translate(0 20.444444444444443)"/><use xlink:href="#h" transform="matrix(1,0,0,1,792.0329249617147,933.8062787136294) translate(0 20.444444444444443)"/><path d="M1140.43 797.5h-43.34c-2.77 0-5 2.24-5 5v68.3c0 2.77-2.25 5-5 5h-43.36" stroke="#999" stroke-width="5" fill="none"/><path fill="#fff"/><path d="M1122.93 807.5h-5v-20h5zM1070.45 875.8l-24.47 12.24-2.24-4.47 15.53-7.76-15.53-7.76 2.24-4.47z" fill="#999"/><path d="M634.97 803.22h69.78c2.76 0 5 2.24 5 5v99.6c0 2.75 2.24 5 5 5h69.78" stroke="#999" stroke-width="5" fill="none"/><path fill="#fff"/><path d="M657.47 813.22h-5v-20h5zM784.53 905.04L769 912.8l15.53 7.77-2.23 4.47-24.48-12.23 24.48-12.23z" fill="#999"/><path d="M-1297.5 1100.53c0-2.76 2.24-5 5-5h244.2c2.77 0 5 2.24 5 5v178c0 2.76-2.23 5-5 5h-244.2c-2.76 0-5-2.24-5-5z" fill="#fff"/><path d="M-1297.5 1100.53c0-2.76 2.24-5 5-5h244.2c2.77 0 5 2.24 5 5v178c0 2.76-2.23 5-5 5h-244.2c-2.76 0-5-2.24-5-5zM-1297.5 1135.53h254.2" stroke="#666" stroke-width="5" fill="none"/><use xlink:href="#L" transform="matrix(1,0,0,1,-1287.5000000000002,1095.528330781011) translate(18.85802469135804 24.444444444444443)"/><use xlink:href="#b" transform="matrix(1,0,0,1,-1292.5000000000002,1138.028330781011) translate(0 20.444444444444443)"/><use xlink:href="#u" transform="matrix(1,0,0,1,-1292.5000000000002,1175.028330781011) translate(0 20.444444444444443)"/><use xlink:href="#v" transform="matrix(1,0,0,1,-1292.5000000000002,1212.028330781011) translate(0 20.444444444444443)"/><use xlink:href="#h" transform="matrix(1,0,0,1,-1292.5000000000002,1249.028330781011) translate(0 20.444444444444443)"/><path d="M-768.2 803.22h-131.3c-2.75 0-5 2.24-5 5v377.8c0 2.77-2.23 5-5 5h-131.3" stroke="#999" stroke-width="5" fill="none"/><path fill="#fff"/><path d="M-785.7 813.22h-5v-20h5zM-1014.08 1191.03l-24.47 12.23-2.24-4.47 15.54-7.77-15.53-7.77 2.25-4.47z" fill="#999"/><path d="M-842.42 1236.65h-94.87c-2.37 0-4.3-1.93-4.3-4.3 0-2.4-1.93-4.32-4.3-4.32h-94.9" stroke="#999" stroke-width="5" fill="none"/><path fill="#fff"/><path d="M-859.92 1246.65h-5v-20h5zM-1014.08 1228.03l-24.47 12.23-2.24-4.47 15.54-7.77-15.53-7.77 2.25-4.47z" fill="#999"/><path d="M479.95 1436.1c0-2.77 2.23-5 5-5h244.2c2.77 0 5 2.23 5 5v252c0 2.75-2.23 5-5 5h-244.2c-2.77 0-5-2.25-5-5z" fill="#fff"/><path d="M479.95 1431.1h254.2v40h-254.2z" fill="#ccc"/><path d="M479.95 1436.1c0-2.77 2.23-5 5-5h244.2c2.77 0 5 2.23 5 5v252c0 2.75-2.23 5-5 5h-244.2c-2.77 0-5-2.25-5-5zM479.95 1471.1h254.2" stroke="#666" stroke-width="5" fill="none"/><use xlink:href="#M" transform="matrix(1,0,0,1,489.9456355283304,1431.0872894333843) translate(24.413580246913597 24.444444444444443)"/><use xlink:href="#b" transform="matrix(1,0,0,1,484.9456355283304,1473.5872894333843) translate(0 20.444444444444443)"/><use xlink:href="#G" transform="matrix(1,0,0,1,484.9456355283304,1510.5872894333843) translate(0 20.444444444444443)"/><use xlink:href="#N" transform="matrix(1,0,0,1,484.9456355283304,1547.5872894333843) translate(0 20.444444444444443)"/><use xlink:href="#I" transform="matrix(1,0,0,1,484.9456355283304,1584.5872894333843) translate(0 20.444444444444443)"/><use xlink:href="#g" transform="matrix(1,0,0,1,484.9456355283304,1621.5872894333843) translate(0 20.444444444444443)"/><use xlink:href="#h" transform="matrix(1,0,0,1,484.9456355283304,1658.5872894333843) translate(0 20.444444444444443)"/><path d="M253.66 1628.9H361.2c2.4 0 4.35 1.94 4.35 4.34s1.95 4.35 4.35 4.35h107.55" stroke="#999" stroke-width="5" fill="none"/><path fill="#fff"/><path d="M276.16 1638.9h-5v-20h5zM477.45 1629.82l-15.53 7.77 15.53 7.75-2.24 4.47-24.46-12.23 24.47-12.25z" fill="#999"/><path d="M787.03 465c0-2.76 2.24-5 5-5h244.2c2.78 0 5 2.24 5 5v178c0 2.76-2.22 5-5 5h-244.2c-2.76 0-5-2.24-5-5z" fill="#fff"/><path d="M787.03 465c0-2.76 2.24-5 5-5h244.2c2.78 0 5 2.24 5 5v178c0 2.76-2.22 5-5 5h-244.2c-2.76 0-5-2.24-5-5zM787.03 500h254.2" stroke="#666" stroke-width="5" fill="none"/><use xlink:href="#O" transform="matrix(1,0,0,1,797.0329249617147,460) translate(18.333333333333357 24.444444444444443)"/><use xlink:href="#b" transform="matrix(1,0,0,1,792.0329249617147,502.5) translate(0 20.444444444444443)"/><use xlink:href="#C" transform="matrix(1,0,0,1,792.0329249617147,539.5) translate(0 20.444444444444443)"/><use xlink:href="#N" transform="matrix(1,0,0,1,792.0329249617147,576.5) translate(0 20.444444444444443)"/><use xlink:href="#h" transform="matrix(1,0,0,1,792.0329249617147,613.5) translate(0 20.444444444444443)"/><path d="M634.97 803.22h69.78c2.76 0 5-2.24 5-5V560.5c0-2.76 2.24-5 5-5h69.78" stroke="#999" stroke-width="5" fill="none"/><path fill="#fff"/><path d="M657.47 813.22h-5v-20h5zM784.53 547.74L769 555.5l15.53 7.76-2.23 4.48-24.48-12.24 24.48-12.24z" fill="#999"/><path d="M-738.24 1675.05c0-2.77 2.24-5 5-5h244.22c2.76 0 5 2.23 5 5v289c0 2.76-2.24 5-5 5h-244.22c-2.76 0-5-2.24-5-5z" fill="#fff"/><path d="M-738.24 1670.05h254.22v40h-254.22z" fill="#ccc"/><path d="M-738.24 1675.05c0-2.77 2.24-5 5-5h244.22c2.76 0 5 2.23 5 5v289c0 2.76-2.24 5-5 5h-244.22c-2.76 0-5-2.24-5-5zM-738.24 1710.05h254.22" stroke="#666" stroke-width="5" fill="none"/><use xlink:href="#P" transform="matrix(1,0,0,1,-728.2350689127106,1670.045941807044) translate(32.43827160493828 24.444444444444443)"/><use xlink:href="#b" transform="matrix(1,0,0,1,-733.2350689127106,1712.545941807044) translate(0 20.444444444444443)"/><use xlink:href="#G" transform="matrix(1,0,0,1,-733.2350689127106,1749.545941807044) translate(0 20.444444444444443)"/><use xlink:href="#Q" transform="matrix(1,0,0,1,-733.2350689127106,1786.545941807044) translate(0 20.444444444444443)"/><use xlink:href="#R" transform="matrix(1,0,0,1,-733.2350689127106,1823.545941807044) translate(0 20.444444444444443)"/><use xlink:href="#I" transform="matrix(1,0,0,1,-733.2350689127106,1860.545941807044) translate(0 20.444444444444443)"/><use xlink:href="#v" transform="matrix(1,0,0,1,-733.2350689127106,1897.545941807044) translate(0 20.444444444444443)"/><use xlink:href="#h" transform="matrix(1,0,0,1,-733.2350689127106,1934.545941807044) translate(0 20.444444444444443)"/><path d="M-1297.5 1845c0-2.76 2.24-5 5-5h295.05c2.77 0 5 2.24 5 5v321c0 2.76-2.23 5-5 5h-295.05c-2.76 0-5-2.24-5-5z" fill="#fff"/><path d="M-1297.5 1840h305.05v40h-305.05z" fill="#ccc"/><path d="M-1297.5 1845c0-2.76 2.24-5 5-5h295.05c2.77 0 5 2.24 5 5v321c0 2.76-2.23 5-5 5h-295.05c-2.76 0-5-2.24-5-5zM-1297.5 1880h305.05" stroke="#666" stroke-width="5" fill="none"/><use xlink:href="#S" transform="matrix(1,0,0,1,-1287.5,1840) translate(7.351851851851848 24.444444444444443)"/><use xlink:href="#b" transform="matrix(1,0,0,1,-1292.5,1882.5) translate(0 20.444444444444443)"/><use xlink:href="#G" transform="matrix(1,0,0,1,-1292.5,1919.5) translate(0 20.444444444444443)"/><use xlink:href="#T" transform="matrix(1,0,0,1,-1292.5,1956.5) translate(0 20.444444444444443)"/><use xlink:href="#R" transform="matrix(1,0,0,1,-1292.5,1993.5) translate(0 20.444444444444443)"/><use xlink:href="#u" transform="matrix(1,0,0,1,-1292.5,2030.5) translate(0 20.444444444444443)"/><use xlink:href="#I" transform="matrix(1,0,0,1,-1292.5,2067.5) translate(0 20.444444444444443)"/><use xlink:href="#v" transform="matrix(1,0,0,1,-1292.5,2104.5) translate(0 20.444444444444443)"/><use xlink:href="#h" transform="matrix(1,0,0,1,-1292.5,2141.5) translate(0 17.944444444444443)"/><path d="M990.87 1183.26h35c2.76 0 5 2.24 5 5v683.3c0 2.75-2.24 5-5 5h-1507.4" stroke="#999" stroke-width="5" fill="none"/><path fill="#fff"/><path d="M1013.37 1193.26h-5v-20h5zM-454.82 1876.55l-24.47 12.23-2.22-4.47 15.52-7.75-15.52-7.77 2.23-4.47z" fill="#999"/><path d="M-842.42 1236.65h-35c-2.76 0-5 2.24-5 5v666.9c0 2.76 2.24 5 5 5h136.68" stroke="#999" stroke-width="5" fill="none"/><path fill="#fff"/><path d="M-859.92 1246.65h-5v-20h5zM-740.74 1905.78l-15.52 7.77 15.52 7.76-2.23 4.48-24.47-12.23 24.47-12.24z" fill="#999"/><path d="M-768.2 803.22H-1335c-2.76 0-5 2.24-5 5V2041.5c0 2.76 2.24 5 5 5h35" stroke="#999" stroke-width="5" fill="none"/><path fill="#fff"/><path d="M-785.7 813.22h-5v-20h5zM-1300 2038.74l-15.53 7.76 15.53 7.76-2.24 4.48-24.47-12.24 24.46-12.24z" fill="#999"/><path d="M731.66 1183.26h-289.2c-2.78 0-5 2.24-5 5v407.33c0 2.75 2.22 5 5 5h35" stroke="#999" stroke-width="5" fill="none"/><path fill="#fff"/><path d="M714.16 1193.26h-5v-20h5zM477.45 1592.82l-15.53 7.77 15.53 7.75-2.24 4.47-24.46-12.23 24.47-12.25z" fill="#999"/><path d="M1289.35 1642.48l-4.9 8.24c-1.42 2.37-4.8 4.3-7.56 4.3H-598.67c-2.76 0-6.15 1.92-7.56 4.3l-4.9 8.23" stroke="#999" stroke-width="5" fill="none"/><path fill="#fff"/><path d="M1289 1662.63l-2.57 4.3-17.18-10.24 2.56-4.3zM-599.34 1670.05h-5l1.16-15.84-14.62 9.37-2.7-4.2 23.04-14.77z" fill="#999"/><path d="M-842.42 1236.65h-68.76c-2.76 0-5 2.24-5 5v873.85c0 2.76-2.24 5-5 5h-68.77" stroke="#999" stroke-width="5" fill="none"/><path fill="#fff"/><path d="M-859.92 1246.65h-5v-20h5zM-963.24 2120.5l-24.47 12.24-2.25-4.48 15.53-7.76-15.53-7.76 2.24-4.48z" fill="#999"/><path d="M990.87 1183.26h35c2.76 0 5 2.24 5 5v890.24c0 2.76-2.24 5-5 5H-989.95" stroke="#999" stroke-width="5" fill="none"/><path fill="#fff"/><path d="M1013.37 1193.26h-5v-20h5zM-963.24 2083.5l-24.47 12.24-2.25-4.48 15.53-7.76-15.53-7.76 2.24-4.48z" fill="#999"/><path d="M-5.56 1628.9h-871.86c-2.76 0-5-2.24-5-5v-197.25c0-2.76 2.24-5 5-5h35" stroke="#999" stroke-width="5" fill="none"/><path fill="#fff"/><path d="M-23.06 1638.9h-5v-20h5zM-842.42 1413.88l-15.53 7.77 15.53 7.76-2.24 4.48-24.47-12.23 24.47-12.24z" fill="#999"/><path d="M1159.75 1362.48H953.2c-2.76 0-5 2.24-5 5v191.1c0 2.77-2.24 5-5 5H736.66" stroke="#999" stroke-width="5" fill="none"/><path fill="#fff"/><path d="M1142.25 1372.48h-5v-20h5zM763.37 1563.6l-24.48 12.22-2.24-4.47 15.52-7.76-15.52-7.78 2.23-4.47z" fill="#999"/><path d="M1418.96 1362.48h35c2.76 0 5-2.24 5-5V597.5c0-2.76-2.24-5-5-5h-410.22" stroke="#999" stroke-width="5" fill="none"/><path fill="#fff"/><path d="M1441.46 1372.48h-5v-20h5zM1070.45 592.5l-24.47 12.24-2.24-4.48 15.53-7.76-15.53-7.76 2.24-4.48z" fill="#999"/><path d="M-360 560.3c0-2.76 2.24-5 5-5h234.02c2.77 0 5 2.24 5 5v215c0 2.77-2.23 5-5 5H-355c-2.76 0-5-2.23-5-5z" fill="#fff"/><path d="M-360 555.3h244.02v40H-360z" fill="#ccc"/><path d="M-360 560.3c0-2.76 2.24-5 5-5h234.02c2.77 0 5 2.24 5 5v215c0 2.77-2.23 5-5 5H-355c-2.76 0-5-2.23-5-5zM-360 595.3h244.02" stroke="#666" stroke-width="5" fill="none"/><use xlink:href="#U" transform="matrix(1,0,0,1,-350,555.3062787136294) translate(9.506172839506206 24.444444444444443)"/><use xlink:href="#b" transform="matrix(1,0,0,1,-355,597.8062787136294) translate(0 20.444444444444443)"/><use xlink:href="#V" transform="matrix(1,0,0,1,-355,634.8062787136294) translate(0 20.444444444444443)"/><use xlink:href="#v" transform="matrix(1,0,0,1,-355,671.8062787136294) translate(0 20.444444444444443)"/><use xlink:href="#w" transform="matrix(1,0,0,1,-355,708.8062787136294) translate(0 20.444444444444443)"/><use xlink:href="#p" transform="matrix(1,0,0,1,-355,745.8062787136294) translate(0 20.444444444444443)"/><path d="M-583.2 1234.86h105.35c2.76 0 5-2.24 5-5V692.8c0-2.76 2.23-5 5-5h105.35" stroke="#999" stroke-width="5" fill="none"/><path fill="#fff"/><path d="M-560.7 1244.86h-5v-20h5zM-362.5 680.04l-15.53 7.77 15.53 7.77-2.24 4.47-24.47-12.23 24.46-12.23z" fill="#999"/><path d="M-74.8 1340.2h35c2.78 0 5-2.23 5-5V729.8c0-2.76-2.22-5-5-5h-73.68" stroke="#999" stroke-width="5" fill="none"/><path fill="#fff"/><path d="M-52.3 1350.2h-5v-20h5zM-86.77 724.8l-24.47 12.24-2.24-4.47 15.53-7.76-15.53-7.76 2.24-4.47z" fill="#999"/><defs><path fill="#333" d="M30 0v-248h187v28H63v79h144v27H63v87h162V0H30" id="W"/><path fill="#333" d="M141 0L90-78 38 0H4l68-98-65-92h35l48 74 47-74h35l-64 92 68 98h-35" id="X"/><path fill="#333" d="M141-36C126-15 110 5 73 4 37 3 15-17 15-53c-1-64 63-63 125-63 3-35-9-54-41-54-24 1-41 7-42 31l-33-3c5-37 33-52 76-52 45 0 72 20 72 64v82c-1 20 7 32 28 27v20c-31 9-61-2-59-35zM48-53c0 20 12 33 32 33 41-3 63-29 60-74-43 2-92-5-92 41" id="Y"/><path fill="#333" d="M210-169c-67 3-38 105-44 169h-31v-121c0-29-5-50-35-48C34-165 62-65 56 0H25l-1-190h30c1 10-1 24 2 32 10-44 99-50 107 0 11-21 27-35 58-36 85-2 47 119 55 194h-31v-121c0-29-5-49-35-48" id="Z"/><g id="a"><use transform="matrix(0.06172839506172839,0,0,0.06172839506172839,0,0)" xlink:href="#W"/><use transform="matrix(0.06172839506172839,0,0,0.06172839506172839,14.814814814814813,0)" xlink:href="#X"/><use transform="matrix(0.06172839506172839,0,0,0.06172839506172839,25.925925925925924,0)" xlink:href="#Y"/><use transform="matrix(0.06172839506172839,0,0,0.06172839506172839,38.2716049382716,0)" xlink:href="#Z"/></g><path fill="#0c7cba" d="M25-224v-37h50v37H25zM25 0v-190h50V0H25" id="aa"/><path fill="#0c7cba" d="M88-194c31-1 46 15 58 34l-1-101h50l1 261h-48c-2-10 0-23-3-31C134-8 116 4 84 4 32 4 16-41 15-95c0-56 19-97 73-99zm17 164c33 0 40-30 41-66 1-37-9-64-41-64s-38 30-39 65c0 43 13 65 39 65" id="ab"/><g id="b"><use transform="matrix(0.06172839506172839,0,0,0.06172839506172839,0,0)" xlink:href="#aa"/><use transform="matrix(0.06172839506172839,0,0,0.06172839506172839,6.172839506172839,0)" xlink:href="#ab"/><path fill="#0c7cba" d="M-1.1 1.2h21.9V3.5H-1.1z"/></g><path d="M85-194c31 0 48 13 60 33l-1-100h32l1 261h-30c-2-10 0-23-3-31C134-8 116 4 85 4 32 4 16-35 15-94c0-66 23-100 70-100zm9 24c-40 0-46 34-46 75 0 40 6 74 45 74 42 0 51-32 51-76 0-42-9-74-50-73" id="ac"/><path d="M100-194c63 0 86 42 84 106H49c0 40 14 67 53 68 26 1 43-12 49-29l28 8c-11 28-37 45-77 45C44 4 14-33 15-96c1-61 26-98 85-98zm52 81c6-60-76-77-97-28-3 7-6 17-6 28h103" id="ad"/><path d="M135-143c-3-34-86-38-87 0 15 53 115 12 119 90S17 21 10-45l28-5c4 36 97 45 98 0-10-56-113-15-118-90-4-57 82-63 122-42 12 7 21 19 24 35" id="ae"/><path d="M96-169c-40 0-48 33-48 73s9 75 48 75c24 0 41-14 43-38l32 2c-6 37-31 61-74 61-59 0-76-41-82-99-10-93 101-131 147-64 4 7 5 14 7 22l-32 3c-4-21-16-35-41-35" id="af"/><path d="M114-163C36-179 61-72 57 0H25l-1-190h30c1 12-1 29 2 39 6-27 23-49 58-41v29" id="ag"/><path d="M24-231v-30h32v30H24zM24 0v-190h32V0H24" id="ah"/><path d="M115-194c55 1 70 41 70 98S169 2 115 4C84 4 66-9 55-30l1 105H24l-1-265h31l2 30c10-21 28-34 59-34zm-8 174c40 0 45-34 45-75s-6-73-45-74c-42 0-51 32-51 76 0 43 10 73 51 73" id="ai"/><path d="M59-47c-2 24 18 29 38 22v24C64 9 27 4 27-40v-127H5v-23h24l9-43h21v43h35v23H59v120" id="aj"/><path d="M100-194c62-1 85 37 85 99 1 63-27 99-86 99S16-35 15-95c0-66 28-99 85-99zM99-20c44 1 53-31 53-75 0-43-8-75-51-75s-53 32-53 75 10 74 51 75" id="ak"/><path d="M117-194c89-4 53 116 60 194h-32v-121c0-31-8-49-39-48C34-167 62-67 57 0H25l-1-190h30c1 10-1 24 2 32 11-22 29-35 61-36" id="al"/><g id="c"><use transform="matrix(0.06172839506172839,0,0,0.06172839506172839,0,0)" xlink:href="#ac"/><use transform="matrix(0.06172839506172839,0,0,0.06172839506172839,12.345679012345679,0)" xlink:href="#ad"/><use transform="matrix(0.06172839506172839,0,0,0.06172839506172839,24.691358024691358,0)" xlink:href="#ae"/><use transform="matrix(0.06172839506172839,0,0,0.06172839506172839,35.80246913580247,0)" xlink:href="#af"/><use transform="matrix(0.06172839506172839,0,0,0.06172839506172839,46.91358024691358,0)" xlink:href="#ag"/><use transform="matrix(0.06172839506172839,0,0,0.06172839506172839,54.25925925925926,0)" xlink:href="#ah"/><use transform="matrix(0.06172839506172839,0,0,0.06172839506172839,59.135802469135804,0)" xlink:href="#ai"/><use transform="matrix(0.06172839506172839,0,0,0.06172839506172839,71.48148148148148,0)" xlink:href="#aj"/><use transform="matrix(0.06172839506172839,0,0,0.06172839506172839,77.65432098765432,0)" xlink:href="#ah"/><use transform="matrix(0.06172839506172839,0,0,0.06172839506172839,82.53086419753086,0)" xlink:href="#ak"/><use transform="matrix(0.06172839506172839,0,0,0.06172839506172839,94.87654320987654,0)" xlink:href="#al"/></g><path d="M179-190L93 31C79 59 56 82 12 73V49c39 6 53-20 64-50L1-190h34L92-34l54-156h33" id="am"/><g id="d"><use transform="matrix(0.06172839506172839,0,0,0.06172839506172839,0,0)" xlink:href="#aj"/><use transform="matrix(0.06172839506172839,0,0,0.06172839506172839,6.172839506172839,0)" xlink:href="#am"/><use transform="matrix(0.06172839506172839,0,0,0.06172839506172839,17.28395061728395,0)" xlink:href="#ai"/><use transform="matrix(0.06172839506172839,0,0,0.06172839506172839,29.629629629629626,0)" xlink:href="#ad"/></g><path d="M141-36C126-15 110 5 73 4 37 3 15-17 15-53c-1-64 63-63 125-63 3-35-9-54-41-54-24 1-41 7-42 31l-33-3c5-37 33-52 76-52 45 0 72 20 72 64v82c-1 20 7 32 28 27v20c-31 9-61-2-59-35zM48-53c0 20 12 33 32 33 41-3 63-29 60-74-43 2-92-5-92 41" id="an"/><g id="e"><use transform="matrix(0.06172839506172839,0,0,0.06172839506172839,0,0)" xlink:href="#ae"/><use transform="matrix(0.06172839506172839,0,0,0.06172839506172839,11.11111111111111,0)" xlink:href="#aj"/><use transform="matrix(0.06172839506172839,0,0,0.06172839506172839,17.28395061728395,0)" xlink:href="#an"/><use transform="matrix(0.06172839506172839,0,0,0.06172839506172839,29.629629629629626,0)" xlink:href="#ag"/><use transform="matrix(0.06172839506172839,0,0,0.06172839506172839,36.9753086419753,0)" xlink:href="#aj"/></g><g id="f"><use transform="matrix(0.06172839506172839,0,0,0.06172839506172839,0,0)" xlink:href="#ad"/><use transform="matrix(0.06172839506172839,0,0,0.06172839506172839,12.345679012345679,0)" xlink:href="#al"/><use transform="matrix(0.06172839506172839,0,0,0.06172839506172839,24.691358024691358,0)" xlink:href="#ac"/></g><path fill="#19967d" d="M121-226c-27-7-43 5-38 36h38v33H83V0H34v-157H6v-33h28c-9-59 32-81 87-68v32" id="ao"/><path fill="#19967d" d="M147 0L96-86 75-71V0H25v-261h50v150l67-79h53l-66 74L201 0h-54" id="ap"/><path fill="#19967d" d="M-4 44V30h207v14H-4" id="aq"/><path fill="#19967d" d="M135-194c53 0 70 44 70 98 0 56-19 98-73 100-31 1-45-17-59-34 3 33 2 69 2 105H25l-1-265h48c2 10 0 23 3 31 11-24 29-35 60-35zM114-30c33 0 39-31 40-66 0-38-9-64-40-64-56 0-55 130 0 130" id="ar"/><path fill="#19967d" d="M185-48c-13 30-37 53-82 52C43 2 14-33 14-96s30-98 90-98c62 0 83 45 84 108H66c0 31 8 55 39 56 18 0 30-7 34-22zm-45-69c5-46-57-63-70-21-2 6-4 13-4 21h74" id="as"/><path fill="#19967d" d="M135-150c-39-12-60 13-60 57V0H25l-1-190h47c2 13-1 29 3 40 6-28 27-53 61-41v41" id="at"/><path fill="#19967d" d="M25-224v-37h50v37H25zM25 0v-190h50V0H25" id="au"/><path fill="#19967d" d="M110-194c64 0 96 36 96 99 0 64-35 99-97 99-61 0-95-36-95-99 0-62 34-99 96-99zm-1 164c35 0 45-28 45-65 0-40-10-65-43-65-34 0-45 26-45 65 0 36 10 65 43 65" id="av"/><path fill="#19967d" d="M88-194c31-1 46 15 58 34l-1-101h50l1 261h-48c-2-10 0-23-3-31C134-8 116 4 84 4 32 4 16-41 15-95c0-56 19-97 73-99zm17 164c33 0 40-30 41-66 1-37-9-64-41-64s-38 30-39 65c0 43 13 65 39 65" id="aw"/><g id="g"><use transform="matrix(0.06172839506172839,0,0,0.06172839506172839,0,0)" xlink:href="#ao"/><use transform="matrix(0.06172839506172839,0,0,0.06172839506172839,7.345679012345679,0)" xlink:href="#ap"/><use transform="matrix(0.06172839506172839,0,0,0.06172839506172839,19.691358024691358,0)" xlink:href="#aq"/><use transform="matrix(0.06172839506172839,0,0,0.06172839506172839,32.03703703703704,0)" xlink:href="#ar"/><use transform="matrix(0.06172839506172839,0,0,0.06172839506172839,45.55555555555556,0)" xlink:href="#as"/><use transform="matrix(0.06172839506172839,0,0,0.06172839506172839,57.901234567901234,0)" xlink:href="#at"/><use transform="matrix(0.06172839506172839,0,0,0.06172839506172839,66.54320987654322,0)" xlink:href="#au"/><use transform="matrix(0.06172839506172839,0,0,0.06172839506172839,72.71604938271605,0)" xlink:href="#av"/><use transform="matrix(0.06172839506172839,0,0,0.06172839506172839,86.23456790123457,0)" xlink:href="#aw"/><path fill="#19967d" d="M-1.1 1.2h101.97V3.5H-1.1z"/></g><path fill="#c92d39" d="M135-143c-3-34-86-38-87 0 15 53 115 12 119 90S17 21 10-45l28-5c4 36 97 45 98 0-10-56-113-15-118-90-4-57 82-63 122-42 12 7 21 19 24 35" id="ax"/><path fill="#c92d39" d="M59-47c-2 24 18 29 38 22v24C64 9 27 4 27-40v-127H5v-23h24l9-43h21v43h35v23H59v120" id="ay"/><path fill="#c92d39" d="M141-36C126-15 110 5 73 4 37 3 15-17 15-53c-1-64 63-63 125-63 3-35-9-54-41-54-24 1-41 7-42 31l-33-3c5-37 33-52 76-52 45 0 72 20 72 64v82c-1 20 7 32 28 27v20c-31 9-61-2-59-35zM48-53c0 20 12 33 32 33 41-3 63-29 60-74-43 2-92-5-92 41" id="az"/><path fill="#c92d39" d="M84 4C-5 8 30-112 23-190h32v120c0 31 7 50 39 49 72-2 45-101 50-169h31l1 190h-30c-1-10 1-25-2-33-11 22-28 36-60 37" id="aA"/><g id="h"><use transform="matrix(0.06172839506172839,0,0,0.06172839506172839,0,0)" xlink:href="#ax"/><use transform="matrix(0.06172839506172839,0,0,0.06172839506172839,11.11111111111111,0)" xlink:href="#ay"/><use transform="matrix(0.06172839506172839,0,0,0.06172839506172839,17.28395061728395,0)" xlink:href="#az"/><use transform="matrix(0.06172839506172839,0,0,0.06172839506172839,29.629629629629626,0)" xlink:href="#ay"/><use transform="matrix(0.06172839506172839,0,0,0.06172839506172839,35.80246913580247,0)" xlink:href="#aA"/><use transform="matrix(0.06172839506172839,0,0,0.06172839506172839,48.148148148148145,0)" xlink:href="#ax"/></g><path fill="#333" d="M212-179c-10-28-35-45-73-45-59 0-87 40-87 99 0 60 29 101 89 101 43 0 62-24 78-52l27 14C228-24 195 4 139 4 59 4 22-46 18-125c-6-104 99-153 187-111 19 9 31 26 39 46" id="aB"/><path fill="#333" d="M100-194c62-1 85 37 85 99 1 63-27 99-86 99S16-35 15-95c0-66 28-99 85-99zM99-20c44 1 53-31 53-75 0-43-8-75-51-75s-53 32-53 75 10 74 51 75" id="aC"/><path fill="#333" d="M114-163C36-179 61-72 57 0H25l-1-190h30c1 12-1 29 2 39 6-27 23-49 58-41v29" id="aD"/><path fill="#333" d="M85-194c31 0 48 13 60 33l-1-100h32l1 261h-30c-2-10 0-23-3-31C134-8 116 4 85 4 32 4 16-35 15-94c0-66 23-100 70-100zm9 24c-40 0-46 34-46 75 0 40 6 74 45 74 42 0 51-32 51-76 0-42-9-74-50-73" id="aE"/><path fill="#333" d="M24-231v-30h32v30H24zM24 0v-190h32V0H24" id="aF"/><path fill="#333" d="M117-194c89-4 53 116 60 194h-32v-121c0-31-8-49-39-48C34-167 62-67 57 0H25l-1-190h30c1 10-1 24 2 32 11-22 29-35 61-36" id="aG"/><path fill="#333" d="M59-47c-2 24 18 29 38 22v24C64 9 27 4 27-40v-127H5v-23h24l9-43h21v43h35v23H59v120" id="aH"/><path fill="#333" d="M135-143c-3-34-86-38-87 0 15 53 115 12 119 90S17 21 10-45l28-5c4 36 97 45 98 0-10-56-113-15-118-90-4-57 82-63 122-42 12 7 21 19 24 35" id="aI"/><g id="i"><use transform="matrix(0.06172839506172839,0,0,0.06172839506172839,0,0)" xlink:href="#aB"/><use transform="matrix(0.06172839506172839,0,0,0.06172839506172839,15.987654320987653,0)" xlink:href="#aC"/><use transform="matrix(0.06172839506172839,0,0,0.06172839506172839,28.333333333333332,0)" xlink:href="#aC"/><use transform="matrix(0.06172839506172839,0,0,0.06172839506172839,40.67901234567901,0)" xlink:href="#aD"/><use transform="matrix(0.06172839506172839,0,0,0.06172839506172839,48.02469135802469,0)" xlink:href="#aE"/><use transform="matrix(0.06172839506172839,0,0,0.06172839506172839,60.37037037037037,0)" xlink:href="#aF"/><use transform="matrix(0.06172839506172839,0,0,0.06172839506172839,65.24691358024691,0)" xlink:href="#aG"/><use transform="matrix(0.06172839506172839,0,0,0.06172839506172839,77.5925925925926,0)" xlink:href="#Y"/><use transform="matrix(0.06172839506172839,0,0,0.06172839506172839,89.93827160493828,0)" xlink:href="#aH"/><use transform="matrix(0.06172839506172839,0,0,0.06172839506172839,96.11111111111111,0)" xlink:href="#aC"/><use transform="matrix(0.06172839506172839,0,0,0.06172839506172839,108.4567901234568,0)" xlink:href="#aD"/><use transform="matrix(0.06172839506172839,0,0,0.06172839506172839,115.80246913580248,0)" xlink:href="#aI"/></g><path d="M24 0v-261h32V0H24" id="aJ"/><path d="M210-169c-67 3-38 105-44 169h-31v-121c0-29-5-50-35-48C34-165 62-65 56 0H25l-1-190h30c1 10-1 24 2 32 10-44 99-50 107 0 11-21 27-35 58-36 85-2 47 119 55 194h-31v-121c0-29-5-49-35-48" id="aK"/><g id="j"><use transform="matrix(0.06172839506172839,0,0,0.06172839506172839,0,0)" xlink:href="#ad"/><use transform="matrix(0.06172839506172839,0,0,0.06172839506172839,12.345679012345679,0)" xlink:href="#al"/><use transform="matrix(0.06172839506172839,0,0,0.06172839506172839,24.691358024691358,0)" xlink:href="#ag"/><use transform="matrix(0.06172839506172839,0,0,0.06172839506172839,32.03703703703704,0)" xlink:href="#ak"/><use transform="matrix(0.06172839506172839,0,0,0.06172839506172839,44.382716049382715,0)" xlink:href="#aJ"/><use transform="matrix(0.06172839506172839,0,0,0.06172839506172839,49.25925925925926,0)" xlink:href="#aJ"/><use transform="matrix(0.06172839506172839,0,0,0.06172839506172839,54.135802469135804,0)" xlink:href="#aK"/><use transform="matrix(0.06172839506172839,0,0,0.06172839506172839,72.5925925925926,0)" xlink:href="#ad"/><use transform="matrix(0.06172839506172839,0,0,0.06172839506172839,84.93827160493828,0)" xlink:href="#al"/><use transform="matrix(0.06172839506172839,0,0,0.06172839506172839,97.28395061728396,0)" xlink:href="#aj"/></g><g id="k"><use transform="matrix(0.06172839506172839,0,0,0.06172839506172839,0,0)" xlink:href="#al"/><use transform="matrix(0.06172839506172839,0,0,0.06172839506172839,12.345679012345679,0)" xlink:href="#an"/><use transform="matrix(0.06172839506172839,0,0,0.06172839506172839,24.691358024691358,0)" xlink:href="#aK"/><use transform="matrix(0.06172839506172839,0,0,0.06172839506172839,43.148148148148145,0)" xlink:href="#ad"/></g><path d="M-5 72V49h209v23H-5" id="aL"/><g id="l"><use transform="matrix(0.06172839506172839,0,0,0.06172839506172839,0,0)" xlink:href="#aJ"/><use transform="matrix(0.06172839506172839,0,0,0.06172839506172839,4.876543209876543,0)" xlink:href="#an"/><use transform="matrix(0.06172839506172839,0,0,0.06172839506172839,17.22222222222222,0)" xlink:href="#ae"/><use transform="matrix(0.06172839506172839,0,0,0.06172839506172839,28.333333333333332,0)" xlink:href="#aj"/><use transform="matrix(0.06172839506172839,0,0,0.06172839506172839,34.50617283950617,0)" xlink:href="#aL"/><use transform="matrix(0.06172839506172839,0,0,0.06172839506172839,46.85185185185185,0)" xlink:href="#al"/><use transform="matrix(0.06172839506172839,0,0,0.06172839506172839,59.197530864197525,0)" xlink:href="#an"/><use transform="matrix(0.06172839506172839,0,0,0.06172839506172839,71.5432098765432,0)" xlink:href="#aK"/><use transform="matrix(0.06172839506172839,0,0,0.06172839506172839,89.99999999999999,0)" xlink:href="#ad"/></g><path d="M101-251c82-7 93 87 43 132L82-64C71-53 59-42 53-27h129V0H18c2-99 128-94 128-182 0-28-16-43-45-43s-46 15-49 41l-32-3c6-41 34-60 81-64" id="aM"/><g id="m"><use transform="matrix(0.06172839506172839,0,0,0.06172839506172839,0,0)" xlink:href="#aJ"/><use transform="matrix(0.06172839506172839,0,0,0.06172839506172839,4.876543209876543,0)" xlink:href="#an"/><use transform="matrix(0.06172839506172839,0,0,0.06172839506172839,17.22222222222222,0)" xlink:href="#ae"/><use transform="matrix(0.06172839506172839,0,0,0.06172839506172839,28.333333333333332,0)" xlink:href="#aL"/><use transform="matrix(0.06172839506172839,0,0,0.06172839506172839,40.67901234567901,0)" xlink:href="#al"/><use transform="matrix(0.06172839506172839,0,0,0.06172839506172839,53.02469135802469,0)" xlink:href="#an"/><use transform="matrix(0.06172839506172839,0,0,0.06172839506172839,65.37037037037037,0)" xlink:href="#aK"/><use transform="matrix(0.06172839506172839,0,0,0.06172839506172839,83.82716049382715,0)" xlink:href="#ad"/><use transform="matrix(0.06172839506172839,0,0,0.06172839506172839,96.17283950617283,0)" xlink:href="#aL"/><use transform="matrix(0.06172839506172839,0,0,0.06172839506172839,108.51851851851852,0)" xlink:href="#aM"/></g><g id="n"><use transform="matrix(0.06172839506172839,0,0,0.06172839506172839,0,0)" xlink:href="#ah"/><use transform="matrix(0.06172839506172839,0,0,0.06172839506172839,4.876543209876543,0)" xlink:href="#al"/><use transform="matrix(0.06172839506172839,0,0,0.06172839506172839,17.22222222222222,0)" xlink:href="#ae"/><use transform="matrix(0.06172839506172839,0,0,0.06172839506172839,28.333333333333332,0)" xlink:href="#aj"/><use transform="matrix(0.06172839506172839,0,0,0.06172839506172839,34.50617283950617,0)" xlink:href="#aL"/><use transform="matrix(0.06172839506172839,0,0,0.06172839506172839,46.85185185185185,0)" xlink:href="#ad"/><use transform="matrix(0.06172839506172839,0,0,0.06172839506172839,59.197530864197525,0)" xlink:href="#aK"/><use transform="matrix(0.06172839506172839,0,0,0.06172839506172839,77.65432098765432,0)" xlink:href="#an"/><use transform="matrix(0.06172839506172839,0,0,0.06172839506172839,90,0)" xlink:href="#ah"/><use transform="matrix(0.06172839506172839,0,0,0.06172839506172839,94.87654320987654,0)" xlink:href="#aJ"/></g><path d="M206 0h-36l-40-164L89 0H53L-1-190h32L70-26l43-164h34l41 164 42-164h31" id="aN"/><g id="o"><use transform="matrix(0.06172839506172839,0,0,0.06172839506172839,0,0)" xlink:href="#ai"/><use transform="matrix(0.06172839506172839,0,0,0.06172839506172839,12.345679012345679,0)" xlink:href="#an"/><use transform="matrix(0.06172839506172839,0,0,0.06172839506172839,24.691358024691358,0)" xlink:href="#ae"/><use transform="matrix(0.06172839506172839,0,0,0.06172839506172839,35.80246913580247,0)" xlink:href="#ae"/><use transform="matrix(0.06172839506172839,0,0,0.06172839506172839,46.91358024691358,0)" xlink:href="#aN"/><use transform="matrix(0.06172839506172839,0,0,0.06172839506172839,62.901234567901234,0)" xlink:href="#ak"/><use transform="matrix(0.06172839506172839,0,0,0.06172839506172839,75.24691358024691,0)" xlink:href="#ag"/><use transform="matrix(0.06172839506172839,0,0,0.06172839506172839,82.5925925925926,0)" xlink:href="#ac"/></g><g id="p"><use transform="matrix(0.06172839506172839,0,0,0.06172839506172839,0,0)" xlink:href="#ax"/><use transform="matrix(0.06172839506172839,0,0,0.06172839506172839,11.11111111111111,0)" xlink:href="#ay"/><use transform="matrix(0.06172839506172839,0,0,0.06172839506172839,17.28395061728395,0)" xlink:href="#az"/><use transform="matrix(0.06172839506172839,0,0,0.06172839506172839,29.629629629629626,0)" xlink:href="#ay"/><use transform="matrix(0.06172839506172839,0,0,0.06172839506172839,35.80246913580247,0)" xlink:href="#aA"/><use transform="matrix(0.06172839506172839,0,0,0.06172839506172839,48.148148148148145,0)" xlink:href="#ax"/></g><path fill="#333" d="M30-248c87 1 191-15 191 75 0 78-77 80-158 76V0H30v-248zm33 125c57 0 124 11 124-50 0-59-68-47-124-48v98" id="aO"/><path fill="#333" d="M100-194c63 0 86 42 84 106H49c0 40 14 67 53 68 26 1 43-12 49-29l28 8c-11 28-37 45-77 45C44 4 14-33 15-96c1-61 26-98 85-98zm52 81c6-60-76-77-97-28-3 7-6 17-6 28h103" id="aP"/><g id="q"><use transform="matrix(0.06172839506172839,0,0,0.06172839506172839,0,0)" xlink:href="#aO"/><use transform="matrix(0.06172839506172839,0,0,0.06172839506172839,14.814814814814813,0)" xlink:href="#aP"/><use transform="matrix(0.06172839506172839,0,0,0.06172839506172839,27.160493827160494,0)" xlink:href="#aD"/><use transform="matrix(0.06172839506172839,0,0,0.06172839506172839,34.50617283950617,0)" xlink:href="#aF"/><use transform="matrix(0.06172839506172839,0,0,0.06172839506172839,39.382716049382715,0)" xlink:href="#aC"/><use transform="matrix(0.06172839506172839,0,0,0.06172839506172839,51.72839506172839,0)" xlink:href="#aE"/></g><g id="r"><use transform="matrix(0.06172839506172839,0,0,0.06172839506172839,0,0)" xlink:href="#ai"/><use transform="matrix(0.06172839506172839,0,0,0.06172839506172839,12.345679012345679,0)" xlink:href="#ad"/><use transform="matrix(0.06172839506172839,0,0,0.06172839506172839,24.691358024691358,0)" xlink:href="#ag"/><use transform="matrix(0.06172839506172839,0,0,0.06172839506172839,32.03703703703704,0)" xlink:href="#ah"/><use transform="matrix(0.06172839506172839,0,0,0.06172839506172839,36.91358024691358,0)" xlink:href="#ak"/><use transform="matrix(0.06172839506172839,0,0,0.06172839506172839,49.25925925925926,0)" xlink:href="#ac"/></g><path fill="#333" d="M205 0l-28-72H64L36 0H1l101-248h38L239 0h-34zm-38-99l-47-123c-12 45-31 82-46 123h93" id="aQ"/><path fill="#333" d="M206 0h-36l-40-164L89 0H53L-1-190h32L70-26l43-164h34l41 164 42-164h31" id="aR"/><g id="s"><use transform="matrix(0.06172839506172839,0,0,0.06172839506172839,0,0)" xlink:href="#aQ"/><use transform="matrix(0.06172839506172839,0,0,0.06172839506172839,14.814814814814813,0)" xlink:href="#aG"/><use transform="matrix(0.06172839506172839,0,0,0.06172839506172839,27.160493827160494,0)" xlink:href="#aI"/><use transform="matrix(0.06172839506172839,0,0,0.06172839506172839,38.27160493827161,0)" xlink:href="#aR"/><use transform="matrix(0.06172839506172839,0,0,0.06172839506172839,54.25925925925926,0)" xlink:href="#aP"/><use transform="matrix(0.06172839506172839,0,0,0.06172839506172839,66.60493827160494,0)" xlink:href="#aD"/></g><g id="t"><use transform="matrix(0.06172839506172839,0,0,0.06172839506172839,0,0)" xlink:href="#Y"/><use transform="matrix(0.06172839506172839,0,0,0.06172839506172839,12.345679012345679,0)" xlink:href="#aG"/><use transform="matrix(0.06172839506172839,0,0,0.06172839506172839,24.691358024691358,0)" xlink:href="#aI"/><use transform="matrix(0.06172839506172839,0,0,0.06172839506172839,35.80246913580247,0)" xlink:href="#aR"/><use transform="matrix(0.06172839506172839,0,0,0.06172839506172839,51.79012345679012,0)" xlink:href="#aP"/><use transform="matrix(0.06172839506172839,0,0,0.06172839506172839,64.1358024691358,0)" xlink:href="#aD"/></g><path fill="#19967d" d="M84 4C32 4 15-41 15-95c0-55 18-99 73-99 29 0 47 12 58 34l2-30h48l-1 265h-49V-32C136-9 114 4 84 4zm21-34c32 0 41-29 41-66 0-36-9-64-40-64-33 0-39 30-40 65 0 43 13 65 39 65" id="aS"/><path fill="#19967d" d="M85 4C-2 5 27-109 22-190h50c7 57-23 150 33 157 60-5 35-97 40-157h50l1 190h-47c-2-12 1-28-3-38-12 25-28 42-61 42" id="aT"/><path fill="#19967d" d="M137-138c1-29-70-34-71-4 15 46 118 7 119 86 1 83-164 76-172 9l43-7c4 19 20 25 44 25 33 8 57-30 24-41C81-84 22-81 20-136c-2-80 154-74 161-7" id="aU"/><path fill="#19967d" d="M115-3C79 11 28 4 28-45v-112H4v-33h27l15-45h31v45h36v33H77v99c-1 23 16 31 38 25v30" id="aV"/><path fill="#19967d" d="M135-194c87-1 58 113 63 194h-50c-7-57 23-157-34-157-59 0-34 97-39 157H25l-1-190h47c2 12-1 28 3 38 12-26 28-41 61-42" id="aW"/><g id="u"><use transform="matrix(0.06172839506172839,0,0,0.06172839506172839,0,0)" xlink:href="#ao"/><use transform="matrix(0.06172839506172839,0,0,0.06172839506172839,7.345679012345679,0)" xlink:href="#ap"/><use transform="matrix(0.06172839506172839,0,0,0.06172839506172839,19.691358024691358,0)" xlink:href="#aq"/><use transform="matrix(0.06172839506172839,0,0,0.06172839506172839,32.03703703703704,0)" xlink:href="#aS"/><use transform="matrix(0.06172839506172839,0,0,0.06172839506172839,45.55555555555556,0)" xlink:href="#aT"/><use transform="matrix(0.06172839506172839,0,0,0.06172839506172839,59.074074074074076,0)" xlink:href="#as"/><use transform="matrix(0.06172839506172839,0,0,0.06172839506172839,71.41975308641976,0)" xlink:href="#aU"/><use transform="matrix(0.06172839506172839,0,0,0.06172839506172839,83.76543209876544,0)" xlink:href="#aV"/><use transform="matrix(0.06172839506172839,0,0,0.06172839506172839,91.11111111111113,0)" xlink:href="#au"/><use transform="matrix(0.06172839506172839,0,0,0.06172839506172839,97.28395061728396,0)" xlink:href="#av"/><use transform="matrix(0.06172839506172839,0,0,0.06172839506172839,110.80246913580248,0)" xlink:href="#aW"/><path fill="#19967d" d="M-1.1 1.2h126.53V3.5H-1.1z"/></g><path fill="#19967d" d="M144 0l-44-69L55 0H2l70-98-66-92h53l41 62 40-62h54l-67 91 71 99h-54" id="aX"/><path fill="#19967d" d="M133-34C117-15 103 5 69 4 32 3 11-16 11-54c-1-60 55-63 116-61 1-26-3-47-28-47-18 1-26 9-28 27l-52-2c7-38 36-58 82-57s74 22 75 68l1 82c-1 14 12 18 25 15v27c-30 8-71 5-69-32zm-48 3c29 0 43-24 42-57-32 0-66-3-65 30 0 17 8 27 23 27" id="aY"/><path fill="#19967d" d="M220-157c-53 9-28 100-34 157h-49v-107c1-27-5-49-29-50C55-147 81-57 75 0H25l-1-190h47c2 12-1 28 3 38 10-53 101-56 108 0 13-22 24-43 59-42 82 1 51 116 57 194h-49v-107c-1-25-5-48-29-50" id="aZ"/><g id="v"><use transform="matrix(0.06172839506172839,0,0,0.06172839506172839,0,0)" xlink:href="#ao"/><use transform="matrix(0.06172839506172839,0,0,0.06172839506172839,7.345679012345679,0)" xlink:href="#ap"/><use transform="matrix(0.06172839506172839,0,0,0.06172839506172839,19.691358024691358,0)" xlink:href="#aq"/><use transform="matrix(0.06172839506172839,0,0,0.06172839506172839,32.03703703703704,0)" xlink:href="#as"/><use transform="matrix(0.06172839506172839,0,0,0.06172839506172839,44.382716049382715,0)" xlink:href="#aX"/><use transform="matrix(0.06172839506172839,0,0,0.06172839506172839,56.72839506172839,0)" xlink:href="#aY"/><use transform="matrix(0.06172839506172839,0,0,0.06172839506172839,69.07407407407408,0)" xlink:href="#aZ"/><path fill="#19967d" d="M-1.1 1.2h91.04V3.5H-1.1z"/></g><path fill="#19967d" d="M195-6C206 82 75 100 31 46c-4-6-6-13-8-21l49-6c3 16 16 24 34 25 40 0 42-37 40-79-11 22-30 35-61 35-53 0-70-43-70-97 0-56 18-96 73-97 30 0 46 14 59 34l2-30h47zm-90-29c32 0 41-27 41-63 0-35-9-62-40-62-32 0-39 29-40 63 0 36 9 62 39 62" id="ba"/><g id="w"><use transform="matrix(0.06172839506172839,0,0,0.06172839506172839,0,0)" xlink:href="#ao"/><use transform="matrix(0.06172839506172839,0,0,0.06172839506172839,7.345679012345679,0)" xlink:href="#ap"/><use transform="matrix(0.06172839506172839,0,0,0.06172839506172839,19.691358024691358,0)" xlink:href="#aq"/><use transform="matrix(0.06172839506172839,0,0,0.06172839506172839,32.03703703703704,0)" xlink:href="#aU"/><use transform="matrix(0.06172839506172839,0,0,0.06172839506172839,44.382716049382715,0)" xlink:href="#aV"/><use transform="matrix(0.06172839506172839,0,0,0.06172839506172839,51.72839506172839,0)" xlink:href="#aT"/><use transform="matrix(0.06172839506172839,0,0,0.06172839506172839,65.24691358024691,0)" xlink:href="#aw"/><use transform="matrix(0.06172839506172839,0,0,0.06172839506172839,78.76543209876543,0)" xlink:href="#as"/><use transform="matrix(0.06172839506172839,0,0,0.06172839506172839,91.11111111111111,0)" xlink:href="#aW"/><use transform="matrix(0.06172839506172839,0,0,0.06172839506172839,104.62962962962963,0)" xlink:href="#aV"/><use transform="matrix(0.06172839506172839,0,0,0.06172839506172839,111.97530864197532,0)" xlink:href="#aq"/><use transform="matrix(0.06172839506172839,0,0,0.06172839506172839,124.320987654321,0)" xlink:href="#aU"/><use transform="matrix(0.06172839506172839,0,0,0.06172839506172839,136.66666666666669,0)" xlink:href="#au"/><use transform="matrix(0.06172839506172839,0,0,0.06172839506172839,142.83950617283952,0)" xlink:href="#ba"/><use transform="matrix(0.06172839506172839,0,0,0.06172839506172839,156.35802469135803,0)" xlink:href="#aW"/><use transform="matrix(0.06172839506172839,0,0,0.06172839506172839,169.87654320987653,0)" xlink:href="#aY"/><use transform="matrix(0.06172839506172839,0,0,0.06172839506172839,182.2222222222222,0)" xlink:href="#aV"/><use transform="matrix(0.06172839506172839,0,0,0.06172839506172839,189.56790123456787,0)" xlink:href="#aT"/><use transform="matrix(0.06172839506172839,0,0,0.06172839506172839,203.08641975308637,0)" xlink:href="#at"/><use transform="matrix(0.06172839506172839,0,0,0.06172839506172839,211.72839506172835,0)" xlink:href="#as"/><path fill="#19967d" d="M-1.1 1.2h226.3V3.5H-1.1z"/></g><path fill="#333" d="M140-251c81 0 123 46 123 126C263-53 228-8 163 1c7 30 30 48 69 40v23c-55 16-95-15-103-61C56-3 17-48 17-125c0-80 42-126 123-126zm0 227c63 0 89-41 89-101s-29-99-89-99c-61 0-89 39-89 99S79-25 140-24" id="bb"/><path fill="#333" d="M84 4C-5 8 30-112 23-190h32v120c0 31 7 50 39 49 72-2 45-101 50-169h31l1 190h-30c-1-10 1-25-2-33-11 22-28 36-60 37" id="bc"/><g id="x"><use transform="matrix(0.06172839506172839,0,0,0.06172839506172839,0,0)" xlink:href="#bb"/><use transform="matrix(0.06172839506172839,0,0,0.06172839506172839,17.28395061728395,0)" xlink:href="#bc"/><use transform="matrix(0.06172839506172839,0,0,0.06172839506172839,29.629629629629626,0)" xlink:href="#aP"/><use transform="matrix(0.06172839506172839,0,0,0.06172839506172839,41.9753086419753,0)" xlink:href="#aI"/><use transform="matrix(0.06172839506172839,0,0,0.06172839506172839,53.08641975308642,0)" xlink:href="#aH"/><use transform="matrix(0.06172839506172839,0,0,0.06172839506172839,59.25925925925926,0)" xlink:href="#aF"/><use transform="matrix(0.06172839506172839,0,0,0.06172839506172839,64.1358024691358,0)" xlink:href="#aC"/><use transform="matrix(0.06172839506172839,0,0,0.06172839506172839,76.48148148148148,0)" xlink:href="#aG"/></g><g id="y"><use transform="matrix(0.06172839506172839,0,0,0.06172839506172839,0,0)" xlink:href="#ak"/><use transform="matrix(0.06172839506172839,0,0,0.06172839506172839,12.345679012345679,0)" xlink:href="#ai"/><use transform="matrix(0.06172839506172839,0,0,0.06172839506172839,24.691358024691358,0)" xlink:href="#aj"/><use transform="matrix(0.06172839506172839,0,0,0.06172839506172839,30.864197530864196,0)" xlink:href="#ah"/><use transform="matrix(0.06172839506172839,0,0,0.06172839506172839,35.74074074074074,0)" xlink:href="#ak"/><use transform="matrix(0.06172839506172839,0,0,0.06172839506172839,48.08641975308642,0)" xlink:href="#al"/><use transform="matrix(0.06172839506172839,0,0,0.06172839506172839,60.432098765432094,0)" xlink:href="#an"/><use transform="matrix(0.06172839506172839,0,0,0.06172839506172839,72.77777777777777,0)" xlink:href="#aJ"/></g><g id="z"><use transform="matrix(0.06172839506172839,0,0,0.06172839506172839,0,0)" xlink:href="#aB"/><use transform="matrix(0.06172839506172839,0,0,0.06172839506172839,15.987654320987653,0)" xlink:href="#Y"/><use transform="matrix(0.06172839506172839,0,0,0.06172839506172839,28.333333333333332,0)" xlink:href="#aD"/><use transform="matrix(0.06172839506172839,0,0,0.06172839506172839,35.67901234567901,0)" xlink:href="#aP"/><use transform="matrix(0.06172839506172839,0,0,0.06172839506172839,48.02469135802469,0)" xlink:href="#aP"/><use transform="matrix(0.06172839506172839,0,0,0.06172839506172839,60.37037037037037,0)" xlink:href="#aD"/></g><path d="M115-194c53 0 69 39 70 98 0 66-23 100-70 100C84 3 66-7 56-30L54 0H23l1-261h32v101c10-23 28-34 59-34zm-8 174c40 0 45-34 45-75 0-40-5-75-45-74-42 0-51 32-51 76 0 43 10 73 51 73" id="bd"/><path d="M108 0H70L1-190h34L89-25l56-165h34" id="be"/><g id="A"><use transform="matrix(0.06172839506172839,0,0,0.06172839506172839,0,0)" xlink:href="#an"/><use transform="matrix(0.06172839506172839,0,0,0.06172839506172839,12.345679012345679,0)" xlink:href="#bd"/><use transform="matrix(0.06172839506172839,0,0,0.06172839506172839,24.691358024691358,0)" xlink:href="#bd"/><use transform="matrix(0.06172839506172839,0,0,0.06172839506172839,37.03703703703704,0)" xlink:href="#ag"/><use transform="matrix(0.06172839506172839,0,0,0.06172839506172839,44.382716049382715,0)" xlink:href="#ad"/><use transform="matrix(0.06172839506172839,0,0,0.06172839506172839,56.72839506172839,0)" xlink:href="#be"/><use transform="matrix(0.06172839506172839,0,0,0.06172839506172839,67.8395061728395,0)" xlink:href="#ah"/><use transform="matrix(0.06172839506172839,0,0,0.06172839506172839,72.71604938271605,0)" xlink:href="#an"/><use transform="matrix(0.06172839506172839,0,0,0.06172839506172839,85.06172839506173,0)" xlink:href="#aj"/><use transform="matrix(0.06172839506172839,0,0,0.06172839506172839,91.23456790123457,0)" xlink:href="#ah"/><use transform="matrix(0.06172839506172839,0,0,0.06172839506172839,96.11111111111111,0)" xlink:href="#ak"/><use transform="matrix(0.06172839506172839,0,0,0.06172839506172839,108.4567901234568,0)" xlink:href="#al"/></g><path fill="#333" d="M185-189c-5-48-123-54-124 2 14 75 158 14 163 119 3 78-121 87-175 55-17-10-28-26-33-46l33-7c5 56 141 63 141-1 0-78-155-14-162-118-5-82 145-84 179-34 5 7 8 16 11 25" id="bf"/><path fill="#333" d="M177-190C167-65 218 103 67 71c-23-6-38-20-44-43l32-5c15 47 100 32 89-28v-30C133-14 115 1 83 1 29 1 15-40 15-95c0-56 16-97 71-98 29-1 48 16 59 35 1-10 0-23 2-32h30zM94-22c36 0 50-32 50-73 0-42-14-75-50-75-39 0-46 34-46 75s6 73 46 73" id="bg"/><g id="B"><use transform="matrix(0.06172839506172839,0,0,0.06172839506172839,0,0)" xlink:href="#bf"/><use transform="matrix(0.06172839506172839,0,0,0.06172839506172839,14.814814814814813,0)" xlink:href="#aF"/><use transform="matrix(0.06172839506172839,0,0,0.06172839506172839,19.691358024691354,0)" xlink:href="#bg"/><use transform="matrix(0.06172839506172839,0,0,0.06172839506172839,32.03703703703703,0)" xlink:href="#aG"/><use transform="matrix(0.06172839506172839,0,0,0.06172839506172839,44.38271604938271,0)" xlink:href="#Y"/><use transform="matrix(0.06172839506172839,0,0,0.06172839506172839,56.728395061728385,0)" xlink:href="#aH"/><use transform="matrix(0.06172839506172839,0,0,0.06172839506172839,62.90123456790123,0)" xlink:href="#bc"/><use transform="matrix(0.06172839506172839,0,0,0.06172839506172839,75.24691358024691,0)" xlink:href="#aD"/><use transform="matrix(0.06172839506172839,0,0,0.06172839506172839,82.5925925925926,0)" xlink:href="#aP"/></g><path fill="#19967d" d="M190-63c-7 42-38 67-86 67-59 0-84-38-90-98-12-110 154-137 174-36l-49 2c-2-19-15-32-35-32-30 0-35 28-38 64-6 74 65 87 74 30" id="bh"/><g id="C"><use transform="matrix(0.06172839506172839,0,0,0.06172839506172839,0,0)" xlink:href="#ao"/><use transform="matrix(0.06172839506172839,0,0,0.06172839506172839,7.345679012345679,0)" xlink:href="#ap"/><use transform="matrix(0.06172839506172839,0,0,0.06172839506172839,19.691358024691358,0)" xlink:href="#aq"/><use transform="matrix(0.06172839506172839,0,0,0.06172839506172839,32.03703703703704,0)" xlink:href="#bh"/><use transform="matrix(0.06172839506172839,0,0,0.06172839506172839,44.382716049382715,0)" xlink:href="#aY"/><use transform="matrix(0.06172839506172839,0,0,0.06172839506172839,56.72839506172839,0)" xlink:href="#at"/><use transform="matrix(0.06172839506172839,0,0,0.06172839506172839,65.37037037037037,0)" xlink:href="#as"/><use transform="matrix(0.06172839506172839,0,0,0.06172839506172839,77.71604938271605,0)" xlink:href="#as"/><use transform="matrix(0.06172839506172839,0,0,0.06172839506172839,90.06172839506173,0)" xlink:href="#at"/><path fill="#19967d" d="M-1.1 1.2H99.8V3.5H-1.1z"/></g><g id="D"><use transform="matrix(0.06172839506172839,0,0,0.06172839506172839,0,0)" xlink:href="#bf"/><use transform="matrix(0.06172839506172839,0,0,0.06172839506172839,14.814814814814813,0)" xlink:href="#aH"/><use transform="matrix(0.06172839506172839,0,0,0.06172839506172839,20.98765432098765,0)" xlink:href="#bc"/><use transform="matrix(0.06172839506172839,0,0,0.06172839506172839,33.33333333333333,0)" xlink:href="#aE"/><use transform="matrix(0.06172839506172839,0,0,0.06172839506172839,45.679012345679006,0)" xlink:href="#aP"/><use transform="matrix(0.06172839506172839,0,0,0.06172839506172839,58.02469135802468,0)" xlink:href="#aG"/><use transform="matrix(0.06172839506172839,0,0,0.06172839506172839,70.37037037037037,0)" xlink:href="#aH"/></g><path fill="#333" d="M127-220V0H93v-220H8v-28h204v28h-85" id="bi"/><path fill="#333" d="M96-169c-40 0-48 33-48 73s9 75 48 75c24 0 41-14 43-38l32 2c-6 37-31 61-74 61-59 0-76-41-82-99-10-93 101-131 147-64 4 7 5 14 7 22l-32 3c-4-21-16-35-41-35" id="bj"/><path fill="#333" d="M106-169C34-169 62-67 57 0H25v-261h32l-1 103c12-21 28-36 61-36 89 0 53 116 60 194h-32v-121c2-32-8-49-39-48" id="bk"/><g id="E"><use transform="matrix(0.06172839506172839,0,0,0.06172839506172839,0,0)" xlink:href="#bi"/><use transform="matrix(0.06172839506172839,0,0,0.06172839506172839,11.049382716049381,0)" xlink:href="#aP"/><use transform="matrix(0.06172839506172839,0,0,0.06172839506172839,23.39506172839506,0)" xlink:href="#Y"/><use transform="matrix(0.06172839506172839,0,0,0.06172839506172839,35.74074074074074,0)" xlink:href="#bj"/><use transform="matrix(0.06172839506172839,0,0,0.06172839506172839,46.85185185185185,0)" xlink:href="#bk"/><use transform="matrix(0.06172839506172839,0,0,0.06172839506172839,59.197530864197525,0)" xlink:href="#aP"/><use transform="matrix(0.06172839506172839,0,0,0.06172839506172839,71.5432098765432,0)" xlink:href="#aD"/></g><path fill="#333" d="M-5 72V49h209v23H-5" id="bl"/><g id="F"><use transform="matrix(0.06172839506172839,0,0,0.06172839506172839,0,0)" xlink:href="#bf"/><use transform="matrix(0.06172839506172839,0,0,0.06172839506172839,14.814814814814813,0)" xlink:href="#aH"/><use transform="matrix(0.06172839506172839,0,0,0.06172839506172839,20.98765432098765,0)" xlink:href="#bc"/><use transform="matrix(0.06172839506172839,0,0,0.06172839506172839,33.33333333333333,0)" xlink:href="#aE"/><use transform="matrix(0.06172839506172839,0,0,0.06172839506172839,45.679012345679006,0)" xlink:href="#aP"/><use transform="matrix(0.06172839506172839,0,0,0.06172839506172839,58.02469135802468,0)" xlink:href="#aG"/><use transform="matrix(0.06172839506172839,0,0,0.06172839506172839,70.37037037037037,0)" xlink:href="#aH"/><use transform="matrix(0.06172839506172839,0,0,0.06172839506172839,76.5432098765432,0)" xlink:href="#bl"/><use transform="matrix(0.06172839506172839,0,0,0.06172839506172839,88.88888888888889,0)" xlink:href="#bf"/><use transform="matrix(0.06172839506172839,0,0,0.06172839506172839,103.7037037037037,0)" xlink:href="#aF"/><use transform="matrix(0.06172839506172839,0,0,0.06172839506172839,108.58024691358024,0)" xlink:href="#bg"/><use transform="matrix(0.06172839506172839,0,0,0.06172839506172839,120.92592592592592,0)" xlink:href="#aG"/><use transform="matrix(0.06172839506172839,0,0,0.06172839506172839,133.2716049382716,0)" xlink:href="#Y"/><use transform="matrix(0.06172839506172839,0,0,0.06172839506172839,145.61728395061726,0)" xlink:href="#aH"/><use transform="matrix(0.06172839506172839,0,0,0.06172839506172839,151.7901234567901,0)" xlink:href="#bc"/><use transform="matrix(0.06172839506172839,0,0,0.06172839506172839,164.13580246913577,0)" xlink:href="#aD"/><use transform="matrix(0.06172839506172839,0,0,0.06172839506172839,171.48148148148144,0)" xlink:href="#aP"/></g><path d="M177-190C167-65 218 103 67 71c-23-6-38-20-44-43l32-5c15 47 100 32 89-28v-30C133-14 115 1 83 1 29 1 15-40 15-95c0-56 16-97 71-98 29-1 48 16 59 35 1-10 0-23 2-32h30zM94-22c36 0 50-32 50-73 0-42-14-75-50-75-39 0-46 34-46 75s6 73 46 73" id="bm"/><path d="M84 4C-5 8 30-112 23-190h32v120c0 31 7 50 39 49 72-2 45-101 50-169h31l1 190h-30c-1-10 1-25-2-33-11 22-28 36-60 37" id="bn"/><g id="G"><use transform="matrix(0.06172839506172839,0,0,0.06172839506172839,0,0)" xlink:href="#bm"/><use transform="matrix(0.06172839506172839,0,0,0.06172839506172839,12.345679012345679,0)" xlink:href="#ag"/><use transform="matrix(0.06172839506172839,0,0,0.06172839506172839,19.691358024691358,0)" xlink:href="#ak"/><use transform="matrix(0.06172839506172839,0,0,0.06172839506172839,32.03703703703704,0)" xlink:href="#bn"/><use transform="matrix(0.06172839506172839,0,0,0.06172839506172839,44.382716049382715,0)" xlink:href="#ai"/></g><g id="H"><use transform="matrix(0.06172839506172839,0,0,0.06172839506172839,0,0)" xlink:href="#ao"/><use transform="matrix(0.06172839506172839,0,0,0.06172839506172839,7.345679012345679,0)" xlink:href="#ap"/><use transform="matrix(0.06172839506172839,0,0,0.06172839506172839,19.691358024691358,0)" xlink:href="#aq"/><use transform="matrix(0.06172839506172839,0,0,0.06172839506172839,32.03703703703704,0)" xlink:href="#aU"/><use transform="matrix(0.06172839506172839,0,0,0.06172839506172839,44.382716049382715,0)" xlink:href="#aV"/><use transform="matrix(0.06172839506172839,0,0,0.06172839506172839,51.72839506172839,0)" xlink:href="#aT"/><use transform="matrix(0.06172839506172839,0,0,0.06172839506172839,65.24691358024691,0)" xlink:href="#aw"/><use transform="matrix(0.06172839506172839,0,0,0.06172839506172839,78.76543209876543,0)" xlink:href="#as"/><use transform="matrix(0.06172839506172839,0,0,0.06172839506172839,91.11111111111111,0)" xlink:href="#aW"/><use transform="matrix(0.06172839506172839,0,0,0.06172839506172839,104.62962962962963,0)" xlink:href="#aV"/><path fill="#19967d" d="M-1.1 1.2h114.2V3.5H-1.1z"/></g><g id="I"><use transform="matrix(0.06172839506172839,0,0,0.06172839506172839,0,0)" xlink:href="#ao"/><use transform="matrix(0.06172839506172839,0,0,0.06172839506172839,7.345679012345679,0)" xlink:href="#ap"/><use transform="matrix(0.06172839506172839,0,0,0.06172839506172839,19.691358024691358,0)" xlink:href="#aq"/><use transform="matrix(0.06172839506172839,0,0,0.06172839506172839,32.03703703703704,0)" xlink:href="#aU"/><use transform="matrix(0.06172839506172839,0,0,0.06172839506172839,44.382716049382715,0)" xlink:href="#au"/><use transform="matrix(0.06172839506172839,0,0,0.06172839506172839,50.55555555555556,0)" xlink:href="#ba"/><use transform="matrix(0.06172839506172839,0,0,0.06172839506172839,64.07407407407408,0)" xlink:href="#aW"/><use transform="matrix(0.06172839506172839,0,0,0.06172839506172839,77.5925925925926,0)" xlink:href="#aY"/><use transform="matrix(0.06172839506172839,0,0,0.06172839506172839,89.93827160493828,0)" xlink:href="#aV"/><use transform="matrix(0.06172839506172839,0,0,0.06172839506172839,97.28395061728396,0)" xlink:href="#aT"/><use transform="matrix(0.06172839506172839,0,0,0.06172839506172839,110.80246913580248,0)" xlink:href="#at"/><use transform="matrix(0.06172839506172839,0,0,0.06172839506172839,119.44444444444446,0)" xlink:href="#as"/><path fill="#19967d" d="M-1.1 1.2h134V3.5h-134z"/></g><path fill="#333" d="M30-248c118-7 216 8 213 122C240-48 200 0 122 0H30v-248zM63-27c89 8 146-16 146-99s-60-101-146-95v194" id="bo"/><path fill="#333" d="M24 0v-261h32V0H24" id="bp"/><g id="J"><use transform="matrix(0.06172839506172839,0,0,0.06172839506172839,0,0)" xlink:href="#bo"/><use transform="matrix(0.06172839506172839,0,0,0.06172839506172839,15.987654320987653,0)" xlink:href="#aH"/><use transform="matrix(0.06172839506172839,0,0,0.06172839506172839,22.160493827160494,0)" xlink:href="#bp"/><use transform="matrix(0.06172839506172839,0,0,0.06172839506172839,27.037037037037038,0)" xlink:href="#bl"/><use transform="matrix(0.06172839506172839,0,0,0.06172839506172839,39.382716049382715,0)" xlink:href="#aB"/><use transform="matrix(0.06172839506172839,0,0,0.06172839506172839,55.37037037037037,0)" xlink:href="#aC"/><use transform="matrix(0.06172839506172839,0,0,0.06172839506172839,67.71604938271605,0)" xlink:href="#aC"/><use transform="matrix(0.06172839506172839,0,0,0.06172839506172839,80.06172839506173,0)" xlink:href="#aD"/><use transform="matrix(0.06172839506172839,0,0,0.06172839506172839,87.40740740740742,0)" xlink:href="#aE"/><use transform="matrix(0.06172839506172839,0,0,0.06172839506172839,99.7530864197531,0)" xlink:href="#aF"/><use transform="matrix(0.06172839506172839,0,0,0.06172839506172839,104.62962962962965,0)" xlink:href="#aG"/><use transform="matrix(0.06172839506172839,0,0,0.06172839506172839,116.97530864197533,0)" xlink:href="#Y"/><use transform="matrix(0.06172839506172839,0,0,0.06172839506172839,129.32098765432102,0)" xlink:href="#aH"/><use transform="matrix(0.06172839506172839,0,0,0.06172839506172839,135.49382716049385,0)" xlink:href="#aC"/><use transform="matrix(0.06172839506172839,0,0,0.06172839506172839,147.83950617283952,0)" xlink:href="#aD"/><use transform="matrix(0.06172839506172839,0,0,0.06172839506172839,155.1851851851852,0)" xlink:href="#bl"/><use transform="matrix(0.06172839506172839,0,0,0.06172839506172839,167.53086419753086,0)" xlink:href="#aB"/><use transform="matrix(0.06172839506172839,0,0,0.06172839506172839,183.5185185185185,0)" xlink:href="#Y"/><use transform="matrix(0.06172839506172839,0,0,0.06172839506172839,195.86419753086417,0)" xlink:href="#aD"/><use transform="matrix(0.06172839506172839,0,0,0.06172839506172839,203.20987654320984,0)" xlink:href="#aP"/><use transform="matrix(0.06172839506172839,0,0,0.06172839506172839,215.55555555555551,0)" xlink:href="#aP"/><use transform="matrix(0.06172839506172839,0,0,0.06172839506172839,227.90123456790118,0)" xlink:href="#aD"/></g><g id="K"><use transform="matrix(0.06172839506172839,0,0,0.06172839506172839,0,0)" xlink:href="#ao"/><use transform="matrix(0.06172839506172839,0,0,0.06172839506172839,7.345679012345679,0)" xlink:href="#ap"/><use transform="matrix(0.06172839506172839,0,0,0.06172839506172839,19.691358024691358,0)" xlink:href="#aq"/><use transform="matrix(0.06172839506172839,0,0,0.06172839506172839,32.03703703703704,0)" xlink:href="#bh"/><use transform="matrix(0.06172839506172839,0,0,0.06172839506172839,44.382716049382715,0)" xlink:href="#av"/><use transform="matrix(0.06172839506172839,0,0,0.06172839506172839,57.901234567901234,0)" xlink:href="#av"/><use transform="matrix(0.06172839506172839,0,0,0.06172839506172839,71.41975308641975,0)" xlink:href="#at"/><use transform="matrix(0.06172839506172839,0,0,0.06172839506172839,80.06172839506172,0)" xlink:href="#aw"/><use transform="matrix(0.06172839506172839,0,0,0.06172839506172839,93.58024691358024,0)" xlink:href="#au"/><use transform="matrix(0.06172839506172839,0,0,0.06172839506172839,99.75308641975307,0)" xlink:href="#aW"/><use transform="matrix(0.06172839506172839,0,0,0.06172839506172839,113.2716049382716,0)" xlink:href="#aY"/><use transform="matrix(0.06172839506172839,0,0,0.06172839506172839,125.61728395061728,0)" xlink:href="#aV"/><use transform="matrix(0.06172839506172839,0,0,0.06172839506172839,132.96296296296296,0)" xlink:href="#av"/><use transform="matrix(0.06172839506172839,0,0,0.06172839506172839,146.48148148148147,0)" xlink:href="#at"/><path fill="#19967d" d="M-1.1 1.2h157.34V3.5H-1.1z"/></g><g id="L"><use transform="matrix(0.06172839506172839,0,0,0.06172839506172839,0,0)" xlink:href="#bo"/><use transform="matrix(0.06172839506172839,0,0,0.06172839506172839,15.987654320987653,0)" xlink:href="#aH"/><use transform="matrix(0.06172839506172839,0,0,0.06172839506172839,22.160493827160494,0)" xlink:href="#bp"/><use transform="matrix(0.06172839506172839,0,0,0.06172839506172839,27.037037037037038,0)" xlink:href="#bl"/><use transform="matrix(0.06172839506172839,0,0,0.06172839506172839,39.382716049382715,0)" xlink:href="#bb"/><use transform="matrix(0.06172839506172839,0,0,0.06172839506172839,56.666666666666664,0)" xlink:href="#bc"/><use transform="matrix(0.06172839506172839,0,0,0.06172839506172839,69.01234567901234,0)" xlink:href="#aP"/><use transform="matrix(0.06172839506172839,0,0,0.06172839506172839,81.35802469135803,0)" xlink:href="#aI"/><use transform="matrix(0.06172839506172839,0,0,0.06172839506172839,92.46913580246914,0)" xlink:href="#aH"/><use transform="matrix(0.06172839506172839,0,0,0.06172839506172839,98.64197530864197,0)" xlink:href="#aF"/><use transform="matrix(0.06172839506172839,0,0,0.06172839506172839,103.51851851851852,0)" xlink:href="#aC"/><use transform="matrix(0.06172839506172839,0,0,0.06172839506172839,115.8641975308642,0)" xlink:href="#aG"/><use transform="matrix(0.06172839506172839,0,0,0.06172839506172839,128.20987654320987,0)" xlink:href="#bl"/><use transform="matrix(0.06172839506172839,0,0,0.06172839506172839,140.55555555555554,0)" xlink:href="#W"/><use transform="matrix(0.06172839506172839,0,0,0.06172839506172839,155.37037037037035,0)" xlink:href="#X"/><use transform="matrix(0.06172839506172839,0,0,0.06172839506172839,166.48148148148147,0)" xlink:href="#Y"/><use transform="matrix(0.06172839506172839,0,0,0.06172839506172839,178.82716049382714,0)" xlink:href="#Z"/></g><g id="M"><use transform="matrix(0.06172839506172839,0,0,0.06172839506172839,0,0)" xlink:href="#bi"/><use transform="matrix(0.06172839506172839,0,0,0.06172839506172839,11.049382716049381,0)" xlink:href="#aP"/><use transform="matrix(0.06172839506172839,0,0,0.06172839506172839,23.39506172839506,0)" xlink:href="#Y"/><use transform="matrix(0.06172839506172839,0,0,0.06172839506172839,35.74074074074074,0)" xlink:href="#bj"/><use transform="matrix(0.06172839506172839,0,0,0.06172839506172839,46.85185185185185,0)" xlink:href="#bk"/><use transform="matrix(0.06172839506172839,0,0,0.06172839506172839,59.197530864197525,0)" xlink:href="#aP"/><use transform="matrix(0.06172839506172839,0,0,0.06172839506172839,71.5432098765432,0)" xlink:href="#aD"/><use transform="matrix(0.06172839506172839,0,0,0.06172839506172839,78.88888888888889,0)" xlink:href="#bl"/><use transform="matrix(0.06172839506172839,0,0,0.06172839506172839,91.23456790123457,0)" xlink:href="#bf"/><use transform="matrix(0.06172839506172839,0,0,0.06172839506172839,106.04938271604938,0)" xlink:href="#aF"/><use transform="matrix(0.06172839506172839,0,0,0.06172839506172839,110.92592592592592,0)" xlink:href="#bg"/><use transform="matrix(0.06172839506172839,0,0,0.06172839506172839,123.27160493827161,0)" xlink:href="#aG"/><use transform="matrix(0.06172839506172839,0,0,0.06172839506172839,135.6172839506173,0)" xlink:href="#Y"/><use transform="matrix(0.06172839506172839,0,0,0.06172839506172839,147.96296296296296,0)" xlink:href="#aH"/><use transform="matrix(0.06172839506172839,0,0,0.06172839506172839,154.1358024691358,0)" xlink:href="#bc"/><use transform="matrix(0.06172839506172839,0,0,0.06172839506172839,166.48148148148147,0)" xlink:href="#aD"/><use transform="matrix(0.06172839506172839,0,0,0.06172839506172839,173.82716049382714,0)" xlink:href="#aP"/></g><path fill="#19967d" d="M114-157C55-157 80-60 75 0H25v-261h50l-1 109c12-26 28-41 61-42 86-1 58 113 63 194h-50c-7-57 23-157-34-157" id="bq"/><g id="N"><use transform="matrix(0.06172839506172839,0,0,0.06172839506172839,0,0)" xlink:href="#ao"/><use transform="matrix(0.06172839506172839,0,0,0.06172839506172839,7.345679012345679,0)" xlink:href="#ap"/><use transform="matrix(0.06172839506172839,0,0,0.06172839506172839,19.691358024691358,0)" xlink:href="#aq"/><use transform="matrix(0.06172839506172839,0,0,0.06172839506172839,32.03703703703704,0)" xlink:href="#aV"/><use transform="matrix(0.06172839506172839,0,0,0.06172839506172839,39.382716049382715,0)" xlink:href="#as"/><use transform="matrix(0.06172839506172839,0,0,0.06172839506172839,51.72839506172839,0)" xlink:href="#aY"/><use transform="matrix(0.06172839506172839,0,0,0.06172839506172839,64.07407407407408,0)" xlink:href="#bh"/><use transform="matrix(0.06172839506172839,0,0,0.06172839506172839,76.41975308641976,0)" xlink:href="#bq"/><use transform="matrix(0.06172839506172839,0,0,0.06172839506172839,89.93827160493828,0)" xlink:href="#as"/><use transform="matrix(0.06172839506172839,0,0,0.06172839506172839,102.28395061728396,0)" xlink:href="#at"/><path fill="#19967d" d="M-1.1 1.2h113.14V3.5H-1.1z"/></g><g id="O"><use transform="matrix(0.06172839506172839,0,0,0.06172839506172839,0,0)" xlink:href="#bo"/><use transform="matrix(0.06172839506172839,0,0,0.06172839506172839,15.987654320987653,0)" xlink:href="#aH"/><use transform="matrix(0.06172839506172839,0,0,0.06172839506172839,22.160493827160494,0)" xlink:href="#bp"/><use transform="matrix(0.06172839506172839,0,0,0.06172839506172839,27.037037037037038,0)" xlink:href="#bl"/><use transform="matrix(0.06172839506172839,0,0,0.06172839506172839,39.382716049382715,0)" xlink:href="#bi"/><use transform="matrix(0.06172839506172839,0,0,0.06172839506172839,50.4320987654321,0)" xlink:href="#aP"/><use transform="matrix(0.06172839506172839,0,0,0.06172839506172839,62.77777777777778,0)" xlink:href="#Y"/><use transform="matrix(0.06172839506172839,0,0,0.06172839506172839,75.12345679012346,0)" xlink:href="#bj"/><use transform="matrix(0.06172839506172839,0,0,0.06172839506172839,86.23456790123457,0)" xlink:href="#bk"/><use transform="matrix(0.06172839506172839,0,0,0.06172839506172839,98.58024691358025,0)" xlink:href="#aP"/><use transform="matrix(0.06172839506172839,0,0,0.06172839506172839,110.92592592592594,0)" xlink:href="#aD"/><use transform="matrix(0.06172839506172839,0,0,0.06172839506172839,118.27160493827162,0)" xlink:href="#bl"/><use transform="matrix(0.06172839506172839,0,0,0.06172839506172839,130.6172839506173,0)" xlink:href="#aB"/><use transform="matrix(0.06172839506172839,0,0,0.06172839506172839,146.60493827160494,0)" xlink:href="#Y"/><use transform="matrix(0.06172839506172839,0,0,0.06172839506172839,158.9506172839506,0)" xlink:href="#aD"/><use transform="matrix(0.06172839506172839,0,0,0.06172839506172839,166.29629629629628,0)" xlink:href="#aP"/><use transform="matrix(0.06172839506172839,0,0,0.06172839506172839,178.64197530864195,0)" xlink:href="#aP"/><use transform="matrix(0.06172839506172839,0,0,0.06172839506172839,190.98765432098762,0)" xlink:href="#aD"/></g><path fill="#333" d="M233-177c-1 41-23 64-60 70L243 0h-38l-65-103H63V0H30v-248c88 3 205-21 203 71zM63-129c60-2 137 13 137-47 0-61-80-42-137-45v92" id="br"/><g id="P"><use transform="matrix(0.06172839506172839,0,0,0.06172839506172839,0,0)" xlink:href="#bf"/><use transform="matrix(0.06172839506172839,0,0,0.06172839506172839,14.814814814814813,0)" xlink:href="#aF"/><use transform="matrix(0.06172839506172839,0,0,0.06172839506172839,19.691358024691354,0)" xlink:href="#bg"/><use transform="matrix(0.06172839506172839,0,0,0.06172839506172839,32.03703703703703,0)" xlink:href="#aG"/><use transform="matrix(0.06172839506172839,0,0,0.06172839506172839,44.38271604938271,0)" xlink:href="#Y"/><use transform="matrix(0.06172839506172839,0,0,0.06172839506172839,56.728395061728385,0)" xlink:href="#aH"/><use transform="matrix(0.06172839506172839,0,0,0.06172839506172839,62.90123456790123,0)" xlink:href="#bc"/><use transform="matrix(0.06172839506172839,0,0,0.06172839506172839,75.24691358024691,0)" xlink:href="#aD"/><use transform="matrix(0.06172839506172839,0,0,0.06172839506172839,82.5925925925926,0)" xlink:href="#aP"/><use transform="matrix(0.06172839506172839,0,0,0.06172839506172839,94.93827160493828,0)" xlink:href="#bl"/><use transform="matrix(0.06172839506172839,0,0,0.06172839506172839,107.28395061728396,0)" xlink:href="#br"/><use transform="matrix(0.06172839506172839,0,0,0.06172839506172839,123.27160493827162,0)" xlink:href="#aP"/><use transform="matrix(0.06172839506172839,0,0,0.06172839506172839,135.6172839506173,0)" xlink:href="#aI"/><use transform="matrix(0.06172839506172839,0,0,0.06172839506172839,146.7283950617284,0)" xlink:href="#bc"/><use transform="matrix(0.06172839506172839,0,0,0.06172839506172839,159.07407407407408,0)" xlink:href="#bp"/><use transform="matrix(0.06172839506172839,0,0,0.06172839506172839,163.9506172839506,0)" xlink:href="#aH"/></g><g id="Q"><use transform="matrix(0.06172839506172839,0,0,0.06172839506172839,0,0)" xlink:href="#an"/><use transform="matrix(0.06172839506172839,0,0,0.06172839506172839,12.345679012345679,0)" xlink:href="#be"/><use transform="matrix(0.06172839506172839,0,0,0.06172839506172839,23.45679012345679,0)" xlink:href="#ad"/><use transform="matrix(0.06172839506172839,0,0,0.06172839506172839,35.80246913580247,0)" xlink:href="#ag"/><use transform="matrix(0.06172839506172839,0,0,0.06172839506172839,43.148148148148145,0)" xlink:href="#an"/><use transform="matrix(0.06172839506172839,0,0,0.06172839506172839,55.49382716049382,0)" xlink:href="#bm"/><use transform="matrix(0.06172839506172839,0,0,0.06172839506172839,67.8395061728395,0)" xlink:href="#ad"/></g><g id="R"><use transform="matrix(0.06172839506172839,0,0,0.06172839506172839,0,0)" xlink:href="#aj"/><use transform="matrix(0.06172839506172839,0,0,0.06172839506172839,6.172839506172839,0)" xlink:href="#ak"/><use transform="matrix(0.06172839506172839,0,0,0.06172839506172839,18.51851851851852,0)" xlink:href="#aj"/><use transform="matrix(0.06172839506172839,0,0,0.06172839506172839,24.691358024691358,0)" xlink:href="#an"/><use transform="matrix(0.06172839506172839,0,0,0.06172839506172839,37.03703703703704,0)" xlink:href="#aJ"/><use transform="matrix(0.06172839506172839,0,0,0.06172839506172839,41.91358024691358,0)" xlink:href="#aL"/><use transform="matrix(0.06172839506172839,0,0,0.06172839506172839,54.25925925925926,0)" xlink:href="#ad"/><use transform="matrix(0.06172839506172839,0,0,0.06172839506172839,66.60493827160494,0)" xlink:href="#be"/><use transform="matrix(0.06172839506172839,0,0,0.06172839506172839,77.71604938271605,0)" xlink:href="#an"/><use transform="matrix(0.06172839506172839,0,0,0.06172839506172839,90.06172839506173,0)" xlink:href="#aJ"/><use transform="matrix(0.06172839506172839,0,0,0.06172839506172839,94.93827160493828,0)" xlink:href="#bn"/><use transform="matrix(0.06172839506172839,0,0,0.06172839506172839,107.28395061728396,0)" xlink:href="#an"/><use transform="matrix(0.06172839506172839,0,0,0.06172839506172839,119.62962962962965,0)" xlink:href="#aj"/><use transform="matrix(0.06172839506172839,0,0,0.06172839506172839,125.80246913580248,0)" xlink:href="#ad"/><use transform="matrix(0.06172839506172839,0,0,0.06172839506172839,138.14814814814815,0)" xlink:href="#ac"/></g><g id="S"><use transform="matrix(0.06172839506172839,0,0,0.06172839506172839,0,0)" xlink:href="#bf"/><use transform="matrix(0.06172839506172839,0,0,0.06172839506172839,14.814814814814813,0)" xlink:href="#aF"/><use transform="matrix(0.06172839506172839,0,0,0.06172839506172839,19.691358024691354,0)" xlink:href="#bg"/><use transform="matrix(0.06172839506172839,0,0,0.06172839506172839,32.03703703703703,0)" xlink:href="#aG"/><use transform="matrix(0.06172839506172839,0,0,0.06172839506172839,44.38271604938271,0)" xlink:href="#Y"/><use transform="matrix(0.06172839506172839,0,0,0.06172839506172839,56.728395061728385,0)" xlink:href="#aH"/><use transform="matrix(0.06172839506172839,0,0,0.06172839506172839,62.90123456790123,0)" xlink:href="#bc"/><use transform="matrix(0.06172839506172839,0,0,0.06172839506172839,75.24691358024691,0)" xlink:href="#aD"/><use transform="matrix(0.06172839506172839,0,0,0.06172839506172839,82.5925925925926,0)" xlink:href="#aP"/><use transform="matrix(0.06172839506172839,0,0,0.06172839506172839,94.93827160493828,0)" xlink:href="#bl"/><use transform="matrix(0.06172839506172839,0,0,0.06172839506172839,107.28395061728396,0)" xlink:href="#bb"/><use transform="matrix(0.06172839506172839,0,0,0.06172839506172839,124.56790123456791,0)" xlink:href="#bc"/><use transform="matrix(0.06172839506172839,0,0,0.06172839506172839,136.9135802469136,0)" xlink:href="#aP"/><use transform="matrix(0.06172839506172839,0,0,0.06172839506172839,149.25925925925927,0)" xlink:href="#aI"/><use transform="matrix(0.06172839506172839,0,0,0.06172839506172839,160.37037037037038,0)" xlink:href="#aH"/><use transform="matrix(0.06172839506172839,0,0,0.06172839506172839,166.54320987654322,0)" xlink:href="#aF"/><use transform="matrix(0.06172839506172839,0,0,0.06172839506172839,171.41975308641975,0)" xlink:href="#aC"/><use transform="matrix(0.06172839506172839,0,0,0.06172839506172839,183.76543209876542,0)" xlink:href="#aG"/><use transform="matrix(0.06172839506172839,0,0,0.06172839506172839,196.1111111111111,0)" xlink:href="#bl"/><use transform="matrix(0.06172839506172839,0,0,0.06172839506172839,208.45679012345676,0)" xlink:href="#br"/><use transform="matrix(0.06172839506172839,0,0,0.06172839506172839,224.4444444444444,0)" xlink:href="#aP"/><use transform="matrix(0.06172839506172839,0,0,0.06172839506172839,236.79012345679007,0)" xlink:href="#aI"/><use transform="matrix(0.06172839506172839,0,0,0.06172839506172839,247.90123456790118,0)" xlink:href="#bc"/><use transform="matrix(0.06172839506172839,0,0,0.06172839506172839,260.2469135802469,0)" xlink:href="#bp"/><use transform="matrix(0.06172839506172839,0,0,0.06172839506172839,265.12345679012344,0)" xlink:href="#aH"/></g><g id="T"><use transform="matrix(0.06172839506172839,0,0,0.06172839506172839,0,0)" xlink:href="#ag"/><use transform="matrix(0.06172839506172839,0,0,0.06172839506172839,7.345679012345679,0)" xlink:href="#ad"/><use transform="matrix(0.06172839506172839,0,0,0.06172839506172839,19.691358024691358,0)" xlink:href="#ae"/><use transform="matrix(0.06172839506172839,0,0,0.06172839506172839,30.80246913580247,0)" xlink:href="#bn"/><use transform="matrix(0.06172839506172839,0,0,0.06172839506172839,43.148148148148145,0)" xlink:href="#aJ"/><use transform="matrix(0.06172839506172839,0,0,0.06172839506172839,48.02469135802469,0)" xlink:href="#aj"/></g><path fill="#333" d="M108 0H70L1-190h34L89-25l56-165h34" id="bs"/><g id="U"><use transform="matrix(0.06172839506172839,0,0,0.06172839506172839,0,0)" xlink:href="#bf"/><use transform="matrix(0.06172839506172839,0,0,0.06172839506172839,14.814814814814813,0)" xlink:href="#aF"/><use transform="matrix(0.06172839506172839,0,0,0.06172839506172839,19.691358024691354,0)" xlink:href="#bg"/><use transform="matrix(0.06172839506172839,0,0,0.06172839506172839,32.03703703703703,0)" xlink:href="#aG"/><use transform="matrix(0.06172839506172839,0,0,0.06172839506172839,44.38271604938271,0)" xlink:href="#Y"/><use transform="matrix(0.06172839506172839,0,0,0.06172839506172839,56.728395061728385,0)" xlink:href="#aH"/><use transform="matrix(0.06172839506172839,0,0,0.06172839506172839,62.90123456790123,0)" xlink:href="#bc"/><use transform="matrix(0.06172839506172839,0,0,0.06172839506172839,75.24691358024691,0)" xlink:href="#aD"/><use transform="matrix(0.06172839506172839,0,0,0.06172839506172839,82.5925925925926,0)" xlink:href="#aP"/><use transform="matrix(0.06172839506172839,0,0,0.06172839506172839,94.93827160493828,0)" xlink:href="#bl"/><use transform="matrix(0.06172839506172839,0,0,0.06172839506172839,107.28395061728396,0)" xlink:href="#W"/><use transform="matrix(0.06172839506172839,0,0,0.06172839506172839,122.09876543209877,0)" xlink:href="#bs"/><use transform="matrix(0.06172839506172839,0,0,0.06172839506172839,133.20987654320987,0)" xlink:href="#Y"/><use transform="matrix(0.06172839506172839,0,0,0.06172839506172839,145.55555555555554,0)" xlink:href="#bp"/><use transform="matrix(0.06172839506172839,0,0,0.06172839506172839,150.43209876543207,0)" xlink:href="#bc"/><use transform="matrix(0.06172839506172839,0,0,0.06172839506172839,162.77777777777774,0)" xlink:href="#Y"/><use transform="matrix(0.06172839506172839,0,0,0.06172839506172839,175.1234567901234,0)" xlink:href="#aH"/><use transform="matrix(0.06172839506172839,0,0,0.06172839506172839,181.29629629629625,0)" xlink:href="#aP"/><use transform="matrix(0.06172839506172839,0,0,0.06172839506172839,193.64197530864192,0)" xlink:href="#aE"/></g><g id="V"><use transform="matrix(0.06172839506172839,0,0,0.06172839506172839,0,0)" xlink:href="#ad"/><use transform="matrix(0.06172839506172839,0,0,0.06172839506172839,12.345679012345679,0)" xlink:href="#be"/><use transform="matrix(0.06172839506172839,0,0,0.06172839506172839,23.45679012345679,0)" xlink:href="#an"/><use transform="matrix(0.06172839506172839,0,0,0.06172839506172839,35.80246913580247,0)" xlink:href="#aJ"/><use transform="matrix(0.06172839506172839,0,0,0.06172839506172839,40.67901234567901,0)" xlink:href="#bn"/><use transform="matrix(0.06172839506172839,0,0,0.06172839506172839,53.02469135802469,0)" xlink:href="#an"/><use transform="matrix(0.06172839506172839,0,0,0.06172839506172839,65.37037037037037,0)" xlink:href="#aj"/><use transform="matrix(0.06172839506172839,0,0,0.06172839506172839,71.5432098765432,0)" xlink:href="#ad"/><use transform="matrix(0.06172839506172839,0,0,0.06172839506172839,83.88888888888889,0)" xlink:href="#ac"/></g></defs></g></svg>